<?xml version="1.0" encoding="utf-8" standalone="no"?>
<!DOCTYPE svg PUBLIC "-//W3C//DTD SVG 1.1//EN"
  "http://www.w3.org/Graphics/SVG/1.1/DTD/svg11.dtd">
<svg xmlns:xlink="http://www.w3.org/1999/xlink" width="998.911875pt" height="884.6225pt" viewBox="0 0 998.911875 884.6225" xmlns="http://www.w3.org/2000/svg" version="1.1">
 <metadata>
  <rdf:RDF xmlns:dc="http://purl.org/dc/elements/1.1/" xmlns:cc="http://creativecommons.org/ns#" xmlns:rdf="http://www.w3.org/1999/02/22-rdf-syntax-ns#">
   <cc:Work>
    <dc:type rdf:resource="http://purl.org/dc/dcmitype/StillImage"/>
    <dc:date>2025-12-22T04:54:40.775372</dc:date>
    <dc:format>image/svg+xml</dc:format>
    <dc:creator>
     <cc:Agent>
      <dc:title>Matplotlib v3.8.0, https://matplotlib.org/</dc:title>
     </cc:Agent>
    </dc:creator>
   </cc:Work>
  </rdf:RDF>
 </metadata>
 <defs>
  <style type="text/css">*{stroke-linejoin: round; stroke-linecap: butt}</style>
 </defs>
 <g id="figure_1">
  <g id="patch_1">
   <path d="M 0 884.6225 
L 998.911875 884.6225 
L 998.911875 0 
L 0 0 
z
" style="fill: #ffffff"/>
  </g>
  <g id="axes_1">
   <g id="patch_2">
    <path d="M 45.571875 438.227717 
L 496.831875 438.227717 
L 496.831875 80.34 
L 45.571875 80.34 
z
" style="fill: #ffffff"/>
   </g>
   <g id="matplotlib.axis_1">
    <g id="xtick_1">
     <g id="line2d_1">
      <path d="M 100.270057 438.227717 
L 100.270057 80.34 
" clip-path="url(#pe458034a29)" style="fill: none; stroke: #cccccc; stroke-width: 0.8; stroke-linecap: round"/>
     </g>
     <g id="line2d_2"/>
     <g id="text_1">
      <!-- ER -->
      <g style="fill: #262626" transform="translate(93.822047 452.905449) rotate(-15) scale(0.1 -0.1)">
       <defs>
        <path id="DejaVuSerif-45" d="M 353 0 
L 353 331 
L 947 331 
L 947 4331 
L 353 4331 
L 353 4666 
L 4109 4666 
L 4109 3628 
L 3725 3628 
L 3725 4281 
L 1581 4281 
L 1581 2719 
L 3109 2719 
L 3109 3303 
L 3494 3303 
L 3494 1753 
L 3109 1753 
L 3109 2338 
L 1581 2338 
L 1581 384 
L 3775 384 
L 3775 1038 
L 4159 1038 
L 4159 0 
L 353 0 
z
" transform="scale(0.015625)"/>
        <path id="DejaVuSerif-52" d="M 3066 2316 
Q 3284 2256 3442 2114 
Q 3600 1972 3725 1716 
L 4403 331 
L 4972 331 
L 4972 0 
L 3872 0 
L 3144 1484 
Q 2934 1916 2759 2042 
Q 2584 2169 2278 2169 
L 1581 2169 
L 1581 331 
L 2241 331 
L 2241 0 
L 353 0 
L 353 331 
L 947 331 
L 947 4331 
L 353 4331 
L 353 4666 
L 2719 4666 
Q 3400 4666 3770 4341 
Q 4141 4016 4141 3419 
Q 4141 2938 3870 2661 
Q 3600 2384 3066 2316 
z
M 1581 2503 
L 2503 2503 
Q 2975 2503 3200 2726 
Q 3425 2950 3425 3419 
Q 3425 3888 3200 4109 
Q 2975 4331 2503 4331 
L 1581 4331 
L 1581 2503 
z
" transform="scale(0.015625)"/>
       </defs>
       <use xlink:href="#DejaVuSerif-45"/>
       <use xlink:href="#DejaVuSerif-52" x="72.998047"/>
      </g>
     </g>
    </g>
    <g id="xtick_2">
     <g id="line2d_3">
      <path d="M 185.735966 438.227717 
L 185.735966 80.34 
" clip-path="url(#pe458034a29)" style="fill: none; stroke: #cccccc; stroke-width: 0.8; stroke-linecap: round"/>
     </g>
     <g id="line2d_4"/>
     <g id="text_2">
      <!-- HTCL-L2 -->
      <g style="fill: #262626" transform="translate(164.202156 460.989905) rotate(-15) scale(0.1 -0.1)">
       <defs>
        <path id="DejaVuSerif-48" d="M 353 0 
L 353 331 
L 947 331 
L 947 4331 
L 353 4331 
L 353 4666 
L 2175 4666 
L 2175 4331 
L 1581 4331 
L 1581 2719 
L 4000 2719 
L 4000 4331 
L 3406 4331 
L 3406 4666 
L 5228 4666 
L 5228 4331 
L 4634 4331 
L 4634 331 
L 5228 331 
L 5228 0 
L 3406 0 
L 3406 331 
L 4000 331 
L 4000 2338 
L 1581 2338 
L 1581 331 
L 2175 331 
L 2175 0 
L 353 0 
z
" transform="scale(0.015625)"/>
        <path id="DejaVuSerif-54" d="M 1222 0 
L 1222 331 
L 1819 331 
L 1819 4294 
L 447 4294 
L 447 3566 
L 63 3566 
L 63 4666 
L 4206 4666 
L 4206 3566 
L 3822 3566 
L 3822 4294 
L 2450 4294 
L 2450 331 
L 3047 331 
L 3047 0 
L 1222 0 
z
" transform="scale(0.015625)"/>
        <path id="DejaVuSerif-43" d="M 4513 1234 
Q 4306 581 3820 245 
Q 3334 -91 2591 -91 
Q 2134 -91 1743 65 
Q 1353 222 1050 525 
Q 700 875 529 1320 
Q 359 1766 359 2328 
Q 359 3416 987 4083 
Q 1616 4750 2644 4750 
Q 3025 4750 3456 4650 
Q 3888 4550 4384 4347 
L 4384 3272 
L 4031 3272 
Q 3916 3859 3567 4137 
Q 3219 4416 2591 4416 
Q 1844 4416 1459 3886 
Q 1075 3356 1075 2328 
Q 1075 1303 1459 773 
Q 1844 244 2591 244 
Q 3113 244 3450 492 
Q 3788 741 3938 1234 
L 4513 1234 
z
" transform="scale(0.015625)"/>
        <path id="DejaVuSerif-4c" d="M 353 0 
L 353 331 
L 947 331 
L 947 4331 
L 353 4331 
L 353 4666 
L 2175 4666 
L 2175 4331 
L 1581 4331 
L 1581 384 
L 3713 384 
L 3713 1166 
L 4097 1166 
L 4097 0 
L 353 0 
z
" transform="scale(0.015625)"/>
        <path id="DejaVuSerif-2d" d="M 281 1959 
L 1881 1959 
L 1881 1472 
L 281 1472 
L 281 1959 
z
" transform="scale(0.015625)"/>
        <path id="DejaVuSerif-32" d="M 819 3553 
L 469 3553 
L 469 4384 
Q 803 4563 1142 4656 
Q 1481 4750 1806 4750 
Q 2534 4750 2956 4397 
Q 3378 4044 3378 3438 
Q 3378 2753 2422 1800 
Q 2347 1728 2309 1691 
L 1131 513 
L 3078 513 
L 3078 1088 
L 3444 1088 
L 3444 0 
L 434 0 
L 434 341 
L 1850 1753 
Q 2319 2222 2519 2614 
Q 2719 3006 2719 3438 
Q 2719 3909 2473 4175 
Q 2228 4441 1797 4441 
Q 1350 4441 1106 4219 
Q 863 3997 819 3553 
z
" transform="scale(0.015625)"/>
       </defs>
       <use xlink:href="#DejaVuSerif-48"/>
       <use xlink:href="#DejaVuSerif-54" x="87.207031"/>
       <use xlink:href="#DejaVuSerif-43" x="153.90625"/>
       <use xlink:href="#DejaVuSerif-4c" x="230.419922"/>
       <use xlink:href="#DejaVuSerif-2d" x="296.826172"/>
       <use xlink:href="#DejaVuSerif-4c" x="330.615234"/>
       <use xlink:href="#DejaVuSerif-32" x="397.021484"/>
      </g>
     </g>
    </g>
    <g id="xtick_3">
     <g id="line2d_5">
      <path d="M 271.201875 438.227717 
L 271.201875 80.34 
" clip-path="url(#pe458034a29)" style="fill: none; stroke: #cccccc; stroke-width: 0.8; stroke-linecap: round"/>
     </g>
     <g id="line2d_6"/>
     <g id="text_3">
      <!-- HTCL-L3 -->
      <g style="fill: #262626" transform="translate(249.668065 460.989905) rotate(-15) scale(0.1 -0.1)">
       <defs>
        <path id="DejaVuSerif-33" d="M 622 4469 
Q 988 4606 1323 4678 
Q 1659 4750 1953 4750 
Q 2638 4750 3022 4454 
Q 3406 4159 3406 3634 
Q 3406 3213 3140 2930 
Q 2875 2647 2388 2547 
Q 2963 2466 3280 2130 
Q 3597 1794 3597 1259 
Q 3597 606 3158 257 
Q 2719 -91 1894 -91 
Q 1528 -91 1179 -12 
Q 831 66 488 225 
L 488 1131 
L 838 1131 
Q 869 681 1141 450 
Q 1413 219 1906 219 
Q 2384 219 2661 495 
Q 2938 772 2938 1253 
Q 2938 1803 2653 2086 
Q 2369 2369 1819 2369 
L 1522 2369 
L 1522 2688 
L 1678 2688 
Q 2225 2688 2498 2914 
Q 2772 3141 2772 3597 
Q 2772 4006 2547 4223 
Q 2322 4441 1900 4441 
Q 1478 4441 1245 4241 
Q 1013 4041 972 3647 
L 622 3647 
L 622 4469 
z
" transform="scale(0.015625)"/>
       </defs>
       <use xlink:href="#DejaVuSerif-48"/>
       <use xlink:href="#DejaVuSerif-54" x="87.207031"/>
       <use xlink:href="#DejaVuSerif-43" x="153.90625"/>
       <use xlink:href="#DejaVuSerif-4c" x="230.419922"/>
       <use xlink:href="#DejaVuSerif-2d" x="296.826172"/>
       <use xlink:href="#DejaVuSerif-4c" x="330.615234"/>
       <use xlink:href="#DejaVuSerif-33" x="397.021484"/>
      </g>
     </g>
    </g>
    <g id="xtick_4">
     <g id="line2d_7">
      <path d="M 356.667784 438.227717 
L 356.667784 80.34 
" clip-path="url(#pe458034a29)" style="fill: none; stroke: #cccccc; stroke-width: 0.8; stroke-linecap: round"/>
     </g>
     <g id="line2d_8"/>
     <g id="text_4">
      <!-- HTCL-L4 -->
      <g style="fill: #262626" transform="translate(335.133974 460.989905) rotate(-15) scale(0.1 -0.1)">
       <defs>
        <path id="DejaVuSerif-34" d="M 2234 1581 
L 2234 4063 
L 641 1581 
L 2234 1581 
z
M 3609 0 
L 1484 0 
L 1484 331 
L 2234 331 
L 2234 1247 
L 197 1247 
L 197 1588 
L 2241 4750 
L 2859 4750 
L 2859 1581 
L 3750 1581 
L 3750 1247 
L 2859 1247 
L 2859 331 
L 3609 331 
L 3609 0 
z
" transform="scale(0.015625)"/>
       </defs>
       <use xlink:href="#DejaVuSerif-48"/>
       <use xlink:href="#DejaVuSerif-54" x="87.207031"/>
       <use xlink:href="#DejaVuSerif-43" x="153.90625"/>
       <use xlink:href="#DejaVuSerif-4c" x="230.419922"/>
       <use xlink:href="#DejaVuSerif-2d" x="296.826172"/>
       <use xlink:href="#DejaVuSerif-4c" x="330.615234"/>
       <use xlink:href="#DejaVuSerif-34" x="397.021484"/>
      </g>
     </g>
    </g>
    <g id="xtick_5">
     <g id="line2d_9">
      <path d="M 442.133693 438.227717 
L 442.133693 80.34 
" clip-path="url(#pe458034a29)" style="fill: none; stroke: #cccccc; stroke-width: 0.8; stroke-linecap: round"/>
     </g>
     <g id="line2d_10"/>
     <g id="text_5">
      <!-- HTCL-L5 -->
      <g style="fill: #262626" transform="translate(420.599884 460.989905) rotate(-15) scale(0.1 -0.1)">
       <defs>
        <path id="DejaVuSerif-35" d="M 3219 4666 
L 3219 4153 
L 1081 4153 
L 1081 2816 
Q 1244 2928 1461 2984 
Q 1678 3041 1947 3041 
Q 2703 3041 3140 2622 
Q 3578 2203 3578 1478 
Q 3578 738 3136 323 
Q 2694 -91 1894 -91 
Q 1572 -91 1234 -12 
Q 897 66 544 225 
L 544 1131 
L 897 1131 
Q 925 688 1179 453 
Q 1434 219 1894 219 
Q 2388 219 2653 544 
Q 2919 869 2919 1478 
Q 2919 2084 2655 2407 
Q 2391 2731 1894 2731 
Q 1613 2731 1398 2631 
Q 1184 2531 1019 2322 
L 750 2322 
L 750 4666 
L 3219 4666 
z
" transform="scale(0.015625)"/>
       </defs>
       <use xlink:href="#DejaVuSerif-48"/>
       <use xlink:href="#DejaVuSerif-54" x="87.207031"/>
       <use xlink:href="#DejaVuSerif-43" x="153.90625"/>
       <use xlink:href="#DejaVuSerif-4c" x="230.419922"/>
       <use xlink:href="#DejaVuSerif-2d" x="296.826172"/>
       <use xlink:href="#DejaVuSerif-4c" x="330.615234"/>
       <use xlink:href="#DejaVuSerif-35" x="397.021484"/>
      </g>
     </g>
    </g>
   </g>
   <g id="matplotlib.axis_2">
    <g id="ytick_1">
     <g id="line2d_11">
      <path d="M 45.571875 438.227717 
L 496.831875 438.227717 
" clip-path="url(#pe458034a29)" style="fill: none; stroke-dasharray: 2.96,1.28; stroke-dashoffset: 0; stroke: #cccccc; stroke-opacity: 0.7; stroke-width: 0.8"/>
     </g>
     <g id="line2d_12"/>
     <g id="text_6">
      <!-- 0 -->
      <g style="fill: #262626" transform="translate(35.709375 442.026935) scale(0.1 -0.1)">
       <defs>
        <path id="DejaVuSerif-30" d="M 2034 219 
Q 2513 219 2750 744 
Q 2988 1269 2988 2328 
Q 2988 3391 2750 3916 
Q 2513 4441 2034 4441 
Q 1556 4441 1318 3916 
Q 1081 3391 1081 2328 
Q 1081 1269 1318 744 
Q 1556 219 2034 219 
z
M 2034 -91 
Q 1275 -91 848 546 
Q 422 1184 422 2328 
Q 422 3475 848 4112 
Q 1275 4750 2034 4750 
Q 2797 4750 3222 4112 
Q 3647 3475 3647 2328 
Q 3647 1184 3222 546 
Q 2797 -91 2034 -91 
z
" transform="scale(0.015625)"/>
       </defs>
       <use xlink:href="#DejaVuSerif-30"/>
      </g>
     </g>
    </g>
    <g id="ytick_2">
     <g id="line2d_13">
      <path d="M 45.571875 365.272209 
L 496.831875 365.272209 
" clip-path="url(#pe458034a29)" style="fill: none; stroke-dasharray: 2.96,1.28; stroke-dashoffset: 0; stroke: #cccccc; stroke-opacity: 0.7; stroke-width: 0.8"/>
     </g>
     <g id="line2d_14"/>
     <g id="text_7">
      <!-- 20 -->
      <g style="fill: #262626" transform="translate(29.346875 369.071428) scale(0.1 -0.1)">
       <use xlink:href="#DejaVuSerif-32"/>
       <use xlink:href="#DejaVuSerif-30" x="63.623047"/>
      </g>
     </g>
    </g>
    <g id="ytick_3">
     <g id="line2d_15">
      <path d="M 45.571875 292.316702 
L 496.831875 292.316702 
" clip-path="url(#pe458034a29)" style="fill: none; stroke-dasharray: 2.96,1.28; stroke-dashoffset: 0; stroke: #cccccc; stroke-opacity: 0.7; stroke-width: 0.8"/>
     </g>
     <g id="line2d_16"/>
     <g id="text_8">
      <!-- 40 -->
      <g style="fill: #262626" transform="translate(29.346875 296.115921) scale(0.1 -0.1)">
       <use xlink:href="#DejaVuSerif-34"/>
       <use xlink:href="#DejaVuSerif-30" x="63.623047"/>
      </g>
     </g>
    </g>
    <g id="ytick_4">
     <g id="line2d_17">
      <path d="M 45.571875 219.361195 
L 496.831875 219.361195 
" clip-path="url(#pe458034a29)" style="fill: none; stroke-dasharray: 2.96,1.28; stroke-dashoffset: 0; stroke: #cccccc; stroke-opacity: 0.7; stroke-width: 0.8"/>
     </g>
     <g id="line2d_18"/>
     <g id="text_9">
      <!-- 60 -->
      <g style="fill: #262626" transform="translate(29.346875 223.160413) scale(0.1 -0.1)">
       <defs>
        <path id="DejaVuSerif-36" d="M 2094 219 
Q 2534 219 2771 542 
Q 3009 866 3009 1472 
Q 3009 2078 2771 2401 
Q 2534 2725 2094 2725 
Q 1647 2725 1412 2412 
Q 1178 2100 1178 1509 
Q 1178 888 1415 553 
Q 1653 219 2094 219 
z
M 1075 2569 
Q 1288 2803 1556 2918 
Q 1825 3034 2163 3034 
Q 2859 3034 3264 2615 
Q 3669 2197 3669 1472 
Q 3669 763 3233 336 
Q 2797 -91 2069 -91 
Q 1278 -91 853 498 
Q 428 1088 428 2181 
Q 428 3406 931 4078 
Q 1434 4750 2350 4750 
Q 2597 4750 2869 4703 
Q 3141 4656 3425 4563 
L 3425 3794 
L 3072 3794 
Q 3034 4109 2831 4275 
Q 2628 4441 2284 4441 
Q 1678 4441 1381 3981 
Q 1084 3522 1075 2569 
z
" transform="scale(0.015625)"/>
       </defs>
       <use xlink:href="#DejaVuSerif-36"/>
       <use xlink:href="#DejaVuSerif-30" x="63.623047"/>
      </g>
     </g>
    </g>
    <g id="ytick_5">
     <g id="line2d_19">
      <path d="M 45.571875 146.405687 
L 496.831875 146.405687 
" clip-path="url(#pe458034a29)" style="fill: none; stroke-dasharray: 2.96,1.28; stroke-dashoffset: 0; stroke: #cccccc; stroke-opacity: 0.7; stroke-width: 0.8"/>
     </g>
     <g id="line2d_20"/>
     <g id="text_10">
      <!-- 80 -->
      <g style="fill: #262626" transform="translate(29.346875 150.204906) scale(0.1 -0.1)">
       <defs>
        <path id="DejaVuSerif-38" d="M 2981 1275 
Q 2981 1775 2732 2051 
Q 2484 2328 2034 2328 
Q 1584 2328 1336 2051 
Q 1088 1775 1088 1275 
Q 1088 772 1336 495 
Q 1584 219 2034 219 
Q 2484 219 2732 495 
Q 2981 772 2981 1275 
z
M 2853 3541 
Q 2853 3966 2637 4203 
Q 2422 4441 2034 4441 
Q 1650 4441 1433 4203 
Q 1216 3966 1216 3541 
Q 1216 3113 1433 2875 
Q 1650 2638 2034 2638 
Q 2422 2638 2637 2875 
Q 2853 3113 2853 3541 
z
M 2516 2484 
Q 3047 2413 3344 2092 
Q 3641 1772 3641 1275 
Q 3641 619 3225 264 
Q 2809 -91 2034 -91 
Q 1263 -91 845 264 
Q 428 619 428 1275 
Q 428 1772 725 2092 
Q 1022 2413 1556 2484 
Q 1084 2569 832 2842 
Q 581 3116 581 3541 
Q 581 4103 968 4426 
Q 1356 4750 2034 4750 
Q 2713 4750 3100 4426 
Q 3488 4103 3488 3541 
Q 3488 3116 3236 2842 
Q 2984 2569 2516 2484 
z
" transform="scale(0.015625)"/>
       </defs>
       <use xlink:href="#DejaVuSerif-38"/>
       <use xlink:href="#DejaVuSerif-30" x="63.623047"/>
      </g>
     </g>
    </g>
    <g id="text_11">
     <!-- Mean Accuracy (%) -->
     <g style="fill: #262626" transform="translate(22.680625 324.062296) rotate(-90) scale(0.12 -0.12)">
      <defs>
       <path id="DejaVuSerif-Bold-4d" d="M 269 0 
L 269 378 
L 863 378 
L 863 4288 
L 269 4288 
L 269 4666 
L 2194 4666 
L 3525 1672 
L 4863 4666 
L 6784 4666 
L 6784 4288 
L 6188 4288 
L 6188 378 
L 6784 378 
L 6784 0 
L 4384 0 
L 4384 378 
L 4978 378 
L 4978 3938 
L 3531 684 
L 2741 684 
L 1300 3938 
L 1300 378 
L 1894 378 
L 1894 0 
L 269 0 
z
" transform="scale(0.015625)"/>
       <path id="DejaVuSerif-Bold-65" d="M 2566 1875 
Q 2566 2531 2444 2795 
Q 2322 3059 2028 3059 
Q 1744 3059 1620 2800 
Q 1497 2541 1497 1931 
L 1497 1875 
L 2566 1875 
z
M 3781 1503 
L 1497 1503 
L 1497 1478 
Q 1497 834 1690 548 
Q 1884 263 2316 263 
Q 2675 263 2897 453 
Q 3119 644 3181 1006 
L 3700 1006 
Q 3566 441 3166 175 
Q 2766 -91 2047 -91 
Q 1184 -91 723 364 
Q 263 819 263 1663 
Q 263 2488 734 2950 
Q 1206 3413 2047 3413 
Q 2872 3413 3312 2927 
Q 3753 2441 3781 1503 
z
" transform="scale(0.015625)"/>
       <path id="DejaVuSerif-Bold-61" d="M 3525 2041 
L 3525 378 
L 4000 378 
L 4000 0 
L 2419 0 
L 2419 422 
Q 2200 159 1931 34 
Q 1663 -91 1319 -91 
Q 809 -91 536 182 
Q 263 456 263 966 
Q 263 1525 655 1803 
Q 1047 2081 1838 2081 
L 2419 2081 
L 2419 2278 
Q 2419 2681 2228 2873 
Q 2038 3066 1638 3066 
Q 1306 3066 1126 2930 
Q 947 2794 872 2484 
L 519 2484 
L 519 3200 
Q 816 3306 1134 3359 
Q 1453 3413 1806 3413 
Q 2697 3413 3111 3081 
Q 3525 2750 3525 2041 
z
M 2419 1044 
L 2419 1709 
L 2003 1709 
Q 1694 1709 1528 1540 
Q 1363 1372 1363 1056 
Q 1363 741 1483 584 
Q 1603 428 1850 428 
Q 2106 428 2262 597 
Q 2419 766 2419 1044 
z
" transform="scale(0.015625)"/>
       <path id="DejaVuSerif-Bold-6e" d="M 219 0 
L 219 378 
L 691 378 
L 691 2944 
L 219 2944 
L 219 3322 
L 1797 3322 
L 1797 2853 
Q 1997 3150 2253 3281 
Q 2509 3413 2900 3413 
Q 3459 3413 3745 3083 
Q 4031 2753 4031 2113 
L 4031 378 
L 4506 378 
L 4506 0 
L 2522 0 
L 2522 378 
L 2925 378 
L 2925 2144 
Q 2925 2566 2817 2730 
Q 2709 2894 2444 2894 
Q 2109 2894 1953 2648 
Q 1797 2403 1797 1869 
L 1797 378 
L 2203 378 
L 2203 0 
L 219 0 
z
" transform="scale(0.015625)"/>
       <path id="DejaVuSerif-Bold-20" transform="scale(0.015625)"/>
       <path id="DejaVuSerif-Bold-41" d="M -50 0 
L -50 378 
L 331 378 
L 2088 4666 
L 2834 4666 
L 4594 378 
L 5038 378 
L 5038 0 
L 2853 0 
L 2853 378 
L 3309 378 
L 2925 1331 
L 1172 1331 
L 781 378 
L 1338 378 
L 1338 0 
L -50 0 
z
M 1325 1709 
L 2772 1709 
L 2053 3494 
L 1325 1709 
z
" transform="scale(0.015625)"/>
       <path id="DejaVuSerif-Bold-63" d="M 3609 1038 
Q 3491 469 3123 189 
Q 2756 -91 2125 -91 
Q 1238 -91 750 368 
Q 263 828 263 1663 
Q 263 2488 744 2950 
Q 1225 3413 2081 3413 
Q 2428 3413 2781 3347 
Q 3134 3281 3500 3150 
L 3500 2228 
L 3150 2228 
Q 3100 2650 2903 2854 
Q 2706 3059 2350 3059 
Q 1888 3059 1692 2746 
Q 1497 2434 1497 1663 
Q 1497 909 1687 586 
Q 1878 263 2309 263 
Q 2644 263 2845 463 
Q 3047 663 3091 1038 
L 3609 1038 
z
" transform="scale(0.015625)"/>
       <path id="DejaVuSerif-Bold-75" d="M 3963 3322 
L 3963 378 
L 4434 378 
L 4434 0 
L 2853 0 
L 2853 469 
Q 2656 172 2400 40 
Q 2144 -91 1753 -91 
Q 1194 -91 908 239 
Q 622 569 622 1209 
L 622 2944 
L 147 2944 
L 147 3322 
L 1728 3322 
L 1728 1381 
Q 1728 763 1831 595 
Q 1934 428 2209 428 
Q 2544 428 2698 675 
Q 2853 922 2853 1459 
L 2853 2944 
L 2450 2944 
L 2450 3322 
L 3963 3322 
z
" transform="scale(0.015625)"/>
       <path id="DejaVuSerif-Bold-72" d="M 3438 3359 
L 3438 2369 
L 3084 2369 
Q 3066 2634 2941 2764 
Q 2816 2894 2578 2894 
Q 2216 2894 2006 2575 
Q 1797 2256 1797 1691 
L 1797 378 
L 2400 378 
L 2400 0 
L 219 0 
L 219 378 
L 691 378 
L 691 2944 
L 184 2944 
L 184 3322 
L 1797 3322 
L 1797 2731 
Q 1959 3078 2226 3245 
Q 2494 3413 2881 3413 
Q 2978 3413 3117 3398 
Q 3256 3384 3438 3359 
z
" transform="scale(0.015625)"/>
       <path id="DejaVuSerif-Bold-79" d="M 1997 -750 
Q 1847 -1116 1634 -1269 
Q 1422 -1422 1063 -1422 
Q 909 -1422 721 -1387 
Q 534 -1353 313 -1288 
L 313 -594 
L 666 -597 
Q 675 -838 779 -953 
Q 884 -1069 1094 -1069 
Q 1297 -1069 1422 -958 
Q 1547 -847 1672 -538 
L 1722 -422 
L 275 2944 
L -84 2944 
L -84 3322 
L 1831 3322 
L 1831 2944 
L 1434 2944 
L 2278 978 
L 3066 2944 
L 2625 2944 
L 2625 3322 
L 3872 3322 
L 3872 2944 
L 3469 2944 
L 1997 -750 
z
" transform="scale(0.015625)"/>
       <path id="DejaVuSerif-Bold-28" d="M 2694 -997 
Q 1641 -606 1122 122 
Q 603 850 603 1931 
Q 603 3013 1115 3731 
Q 1628 4450 2694 4863 
L 2694 4488 
Q 2200 4188 1983 3598 
Q 1766 3009 1766 1931 
Q 1766 856 1983 267 
Q 2200 -322 2694 -622 
L 2694 -997 
z
" transform="scale(0.015625)"/>
       <path id="DejaVuSerif-Bold-25" d="M 1381 4434 
Q 1181 4434 1093 4217 
Q 1006 4000 1006 3481 
Q 1006 2959 1093 2740 
Q 1181 2522 1381 2522 
Q 1584 2522 1671 2740 
Q 1759 2959 1759 3481 
Q 1759 4000 1671 4217 
Q 1584 4434 1381 4434 
z
M 1381 4750 
Q 1978 4750 2295 4423 
Q 2613 4097 2613 3481 
Q 2613 2866 2295 2537 
Q 1978 2209 1381 2209 
Q 788 2209 470 2537 
Q 153 2866 153 3481 
Q 153 4097 470 4423 
Q 788 4750 1381 4750 
z
M 4231 4750 
L 4769 4750 
L 1850 -91 
L 1313 -91 
L 4231 4750 
z
M 4697 2450 
Q 5294 2450 5609 2123 
Q 5925 1797 5925 1184 
Q 5925 569 5609 239 
Q 5294 -91 4697 -91 
Q 4103 -91 3786 239 
Q 3469 569 3469 1184 
Q 3469 1797 3786 2123 
Q 4103 2450 4697 2450 
z
M 4697 2138 
Q 4494 2138 4406 1920 
Q 4319 1703 4319 1184 
Q 4319 663 4408 444 
Q 4497 225 4697 225 
Q 4900 225 4987 444 
Q 5075 663 5075 1184 
Q 5075 1703 4987 1920 
Q 4900 2138 4697 2138 
z
" transform="scale(0.015625)"/>
       <path id="DejaVuSerif-Bold-29" d="M 325 -997 
L 325 -622 
Q 819 -322 1036 267 
Q 1253 856 1253 1931 
Q 1253 3009 1036 3598 
Q 819 4188 325 4488 
L 325 4863 
Q 1391 4450 1905 3731 
Q 2419 3013 2419 1931 
Q 2419 850 1898 122 
Q 1378 -606 325 -997 
z
" transform="scale(0.015625)"/>
      </defs>
      <use xlink:href="#DejaVuSerif-Bold-4d"/>
      <use xlink:href="#DejaVuSerif-Bold-65" x="110.693359"/>
      <use xlink:href="#DejaVuSerif-Bold-61" x="174.316406"/>
      <use xlink:href="#DejaVuSerif-Bold-6e" x="239.111328"/>
      <use xlink:href="#DejaVuSerif-Bold-20" x="311.816406"/>
      <use xlink:href="#DejaVuSerif-Bold-41" x="346.630859"/>
      <use xlink:href="#DejaVuSerif-Bold-63" x="424.21875"/>
      <use xlink:href="#DejaVuSerif-Bold-63" x="485.107422"/>
      <use xlink:href="#DejaVuSerif-Bold-75" x="545.996094"/>
      <use xlink:href="#DejaVuSerif-Bold-72" x="618.701172"/>
      <use xlink:href="#DejaVuSerif-Bold-61" x="671.386719"/>
      <use xlink:href="#DejaVuSerif-Bold-63" x="736.181641"/>
      <use xlink:href="#DejaVuSerif-Bold-79" x="797.070312"/>
      <use xlink:href="#DejaVuSerif-Bold-20" x="855.175781"/>
      <use xlink:href="#DejaVuSerif-Bold-28" x="889.990234"/>
      <use xlink:href="#DejaVuSerif-Bold-25" x="937.304688"/>
      <use xlink:href="#DejaVuSerif-Bold-29" x="1032.324219"/>
     </g>
    </g>
   </g>
   <g id="patch_3">
    <path d="M 66.083693 438.227717 
L 134.45642 438.227717 
L 134.45642 151.269388 
L 66.083693 151.269388 
z
" clip-path="url(#pe458034a29)" style="fill: #3498db; opacity: 0.8; stroke: #000000; stroke-linejoin: miter"/>
   </g>
   <g id="patch_4">
    <path d="M 151.549602 438.227717 
L 219.92233 438.227717 
L 219.92233 119.047372 
L 151.549602 119.047372 
z
" clip-path="url(#pe458034a29)" style="fill: #3498db; opacity: 0.8; stroke: #000000; stroke-linejoin: miter"/>
   </g>
   <g id="patch_5">
    <path d="M 237.015511 438.227717 
L 305.388239 438.227717 
L 305.388239 128.045218 
L 237.015511 128.045218 
z
" clip-path="url(#pe458034a29)" style="fill: #e74c3c; opacity: 0.8; stroke: #000000; stroke-linejoin: miter"/>
   </g>
   <g id="patch_6">
    <path d="M 322.48142 438.227717 
L 390.854148 438.227717 
L 390.854148 167.198007 
L 322.48142 167.198007 
z
" clip-path="url(#pe458034a29)" style="fill: #2ecc71; opacity: 0.8; stroke: #000000; stroke-linejoin: miter"/>
   </g>
   <g id="patch_7">
    <path d="M 407.94733 438.227717 
L 476.320057 438.227717 
L 476.320057 128.531588 
L 407.94733 128.531588 
z
" clip-path="url(#pe458034a29)" style="fill: #9b59b6; opacity: 0.8; stroke: #000000; stroke-linejoin: miter"/>
   </g>
   <g id="LineCollection_1">
    <path d="M 100.270057 181.883058 
L 100.270057 120.655717 
" clip-path="url(#pe458034a29)" style="fill: none; stroke: #000000; stroke-width: 1.5"/>
    <path d="M 185.735966 140.712472 
L 185.735966 97.382272 
" clip-path="url(#pe458034a29)" style="fill: none; stroke: #000000; stroke-width: 1.5"/>
    <path d="M 271.201875 143.447834 
L 271.201875 112.642602 
" clip-path="url(#pe458034a29)" style="fill: none; stroke: #000000; stroke-width: 1.5"/>
    <path d="M 356.667784 216.368691 
L 356.667784 118.027323 
" clip-path="url(#pe458034a29)" style="fill: none; stroke: #000000; stroke-width: 1.5"/>
    <path d="M 442.133693 141.52969 
L 442.133693 115.533486 
" clip-path="url(#pe458034a29)" style="fill: none; stroke: #000000; stroke-width: 1.5"/>
   </g>
   <g id="line2d_21">
    <defs>
     <path id="m58d163db7e" d="M 5 0 
L -5 -0 
" style="stroke: #000000"/>
    </defs>
    <g clip-path="url(#pe458034a29)">
     <use xlink:href="#m58d163db7e" x="100.270057" y="181.883058" style="stroke: #000000"/>
     <use xlink:href="#m58d163db7e" x="185.735966" y="140.712472" style="stroke: #000000"/>
     <use xlink:href="#m58d163db7e" x="271.201875" y="143.447834" style="stroke: #000000"/>
     <use xlink:href="#m58d163db7e" x="356.667784" y="216.368691" style="stroke: #000000"/>
     <use xlink:href="#m58d163db7e" x="442.133693" y="141.52969" style="stroke: #000000"/>
    </g>
   </g>
   <g id="line2d_22">
    <g clip-path="url(#pe458034a29)">
     <use xlink:href="#m58d163db7e" x="100.270057" y="120.655717" style="stroke: #000000"/>
     <use xlink:href="#m58d163db7e" x="185.735966" y="97.382272" style="stroke: #000000"/>
     <use xlink:href="#m58d163db7e" x="271.201875" y="112.642602" style="stroke: #000000"/>
     <use xlink:href="#m58d163db7e" x="356.667784" y="118.027323" style="stroke: #000000"/>
     <use xlink:href="#m58d163db7e" x="442.133693" y="115.533486" style="stroke: #000000"/>
    </g>
   </g>
   <g id="patch_8">
    <path d="M 45.571875 438.227717 
L 45.571875 80.34 
" style="fill: none; stroke: #cccccc; stroke-linejoin: miter; stroke-linecap: square"/>
   </g>
   <g id="patch_9">
    <path d="M 45.571875 438.227717 
L 496.831875 438.227717 
" style="fill: none; stroke: #cccccc; stroke-linejoin: miter; stroke-linecap: square"/>
   </g>
   <g id="text_12">
    <!-- (a) Mean Accuracy Comparison -->
    <g style="fill: #262626" transform="translate(156.968437 74.34) scale(0.13 -0.13)">
     <defs>
      <path id="DejaVuSerif-Bold-43" d="M 4769 1331 
Q 4584 609 4106 259 
Q 3628 -91 2822 -91 
Q 1641 -91 955 561 
Q 269 1213 269 2328 
Q 269 3447 955 4098 
Q 1641 4750 2822 4750 
Q 3238 4750 3688 4650 
Q 4138 4550 4641 4347 
L 4641 3200 
L 4244 3200 
Q 4122 3788 3800 4080 
Q 3478 4372 2950 4372 
Q 2269 4372 1937 3870 
Q 1606 3369 1606 2328 
Q 1606 1288 1937 788 
Q 2269 288 2956 288 
Q 3422 288 3717 547 
Q 4013 806 4147 1331 
L 4769 1331 
z
" transform="scale(0.015625)"/>
      <path id="DejaVuSerif-Bold-6f" d="M 2138 263 
Q 2488 263 2630 563 
Q 2772 863 2772 1663 
Q 2772 2463 2631 2761 
Q 2491 3059 2138 3059 
Q 1784 3059 1640 2757 
Q 1497 2456 1497 1663 
Q 1497 869 1640 566 
Q 1784 263 2138 263 
z
M 2138 -91 
Q 1259 -91 761 376 
Q 263 844 263 1663 
Q 263 2484 761 2948 
Q 1259 3413 2138 3413 
Q 3019 3413 3516 2948 
Q 4013 2484 4013 1663 
Q 4013 844 3514 376 
Q 3016 -91 2138 -91 
z
" transform="scale(0.015625)"/>
      <path id="DejaVuSerif-Bold-6d" d="M 3884 2778 
Q 4116 3109 4384 3261 
Q 4653 3413 5013 3413 
Q 5584 3413 5867 3089 
Q 6150 2766 6150 2113 
L 6150 378 
L 6625 378 
L 6625 0 
L 4647 0 
L 4647 378 
L 5044 378 
L 5044 1947 
Q 5044 2569 4948 2731 
Q 4853 2894 4594 2894 
Q 4300 2894 4137 2667 
Q 3975 2441 3975 2022 
L 3975 378 
L 4372 378 
L 4372 0 
L 2472 0 
L 2472 378 
L 2869 378 
L 2869 1947 
Q 2869 2569 2772 2731 
Q 2675 2894 2419 2894 
Q 2122 2894 1959 2667 
Q 1797 2441 1797 2022 
L 1797 378 
L 2194 378 
L 2194 0 
L 219 0 
L 219 378 
L 691 378 
L 691 2944 
L 219 2944 
L 219 3322 
L 1797 3322 
L 1797 2853 
Q 1991 3144 2241 3278 
Q 2491 3413 2834 3413 
Q 3241 3413 3494 3258 
Q 3747 3103 3884 2778 
z
" transform="scale(0.015625)"/>
      <path id="DejaVuSerif-Bold-70" d="M 1728 1825 
L 1728 1497 
Q 1728 916 1876 656 
Q 2025 397 2356 397 
Q 2697 397 2836 672 
Q 2975 947 2975 1663 
Q 2975 2378 2836 2651 
Q 2697 2925 2356 2925 
Q 2025 2925 1876 2665 
Q 1728 2406 1728 1825 
z
M 622 2944 
L 147 2944 
L 147 3322 
L 1728 3322 
L 1728 2900 
Q 1869 3159 2106 3286 
Q 2344 3413 2694 3413 
Q 3403 3413 3811 2945 
Q 4219 2478 4219 1663 
Q 4219 847 3811 378 
Q 3403 -91 2694 -91 
Q 2344 -91 2106 36 
Q 1869 163 1728 422 
L 1728 -953 
L 2241 -953 
L 2241 -1331 
L 147 -1331 
L 147 -953 
L 622 -953 
L 622 2944 
z
" transform="scale(0.015625)"/>
      <path id="DejaVuSerif-Bold-69" d="M 588 4263 
Q 588 4516 763 4689 
Q 938 4863 1191 4863 
Q 1438 4863 1611 4689 
Q 1784 4516 1784 4263 
Q 1784 4016 1611 3842 
Q 1438 3669 1191 3669 
Q 938 3669 763 3841 
Q 588 4013 588 4263 
z
M 1797 378 
L 2272 378 
L 2272 0 
L 219 0 
L 219 378 
L 691 378 
L 691 2944 
L 219 2944 
L 219 3322 
L 1797 3322 
L 1797 378 
z
" transform="scale(0.015625)"/>
      <path id="DejaVuSerif-Bold-73" d="M 300 97 
L 300 1025 
L 653 1025 
Q 697 653 931 458 
Q 1166 263 1569 263 
Q 1906 263 2086 380 
Q 2266 497 2266 716 
Q 2266 916 2152 1025 
Q 2038 1134 1709 1216 
L 1253 1331 
Q 738 1459 506 1698 
Q 275 1938 275 2344 
Q 275 2884 650 3148 
Q 1025 3413 1806 3413 
Q 2100 3413 2433 3364 
Q 2766 3316 3169 3213 
L 3169 2375 
L 2816 2375 
Q 2788 2716 2573 2887 
Q 2359 3059 1959 3059 
Q 1622 3059 1448 2951 
Q 1275 2844 1275 2638 
Q 1275 2469 1375 2372 
Q 1475 2275 1734 2209 
L 2188 2094 
Q 2841 1928 3091 1684 
Q 3341 1441 3341 1006 
Q 3341 444 2939 176 
Q 2538 -91 1691 -91 
Q 1381 -91 1034 -44 
Q 688 3 300 97 
z
" transform="scale(0.015625)"/>
     </defs>
     <use xlink:href="#DejaVuSerif-Bold-28"/>
     <use xlink:href="#DejaVuSerif-Bold-61" x="47.314453"/>
     <use xlink:href="#DejaVuSerif-Bold-29" x="112.109375"/>
     <use xlink:href="#DejaVuSerif-Bold-20" x="159.423828"/>
     <use xlink:href="#DejaVuSerif-Bold-4d" x="194.238281"/>
     <use xlink:href="#DejaVuSerif-Bold-65" x="304.931641"/>
     <use xlink:href="#DejaVuSerif-Bold-61" x="368.554688"/>
     <use xlink:href="#DejaVuSerif-Bold-6e" x="433.349609"/>
     <use xlink:href="#DejaVuSerif-Bold-20" x="506.054688"/>
     <use xlink:href="#DejaVuSerif-Bold-41" x="540.869141"/>
     <use xlink:href="#DejaVuSerif-Bold-63" x="618.457031"/>
     <use xlink:href="#DejaVuSerif-Bold-63" x="679.345703"/>
     <use xlink:href="#DejaVuSerif-Bold-75" x="740.234375"/>
     <use xlink:href="#DejaVuSerif-Bold-72" x="812.939453"/>
     <use xlink:href="#DejaVuSerif-Bold-61" x="865.625"/>
     <use xlink:href="#DejaVuSerif-Bold-63" x="930.419922"/>
     <use xlink:href="#DejaVuSerif-Bold-79" x="991.308594"/>
     <use xlink:href="#DejaVuSerif-Bold-20" x="1049.414062"/>
     <use xlink:href="#DejaVuSerif-Bold-43" x="1084.228516"/>
     <use xlink:href="#DejaVuSerif-Bold-6f" x="1163.818359"/>
     <use xlink:href="#DejaVuSerif-Bold-6d" x="1230.517578"/>
     <use xlink:href="#DejaVuSerif-Bold-70" x="1336.328125"/>
     <use xlink:href="#DejaVuSerif-Bold-61" x="1406.25"/>
     <use xlink:href="#DejaVuSerif-Bold-72" x="1471.044922"/>
     <use xlink:href="#DejaVuSerif-Bold-69" x="1523.730469"/>
     <use xlink:href="#DejaVuSerif-Bold-73" x="1561.71875"/>
     <use xlink:href="#DejaVuSerif-Bold-6f" x="1618.017578"/>
     <use xlink:href="#DejaVuSerif-Bold-6e" x="1684.716797"/>
    </g>
   </g>
  </g>
  <g id="axes_2">
   <g id="patch_10">
    <path d="M 540.451875 438.227717 
L 991.711875 438.227717 
L 991.711875 80.34 
L 540.451875 80.34 
z
" style="fill: #ffffff"/>
   </g>
   <g id="matplotlib.axis_3">
    <g id="xtick_6">
     <g id="line2d_23">
      <path d="M 595.150057 438.227717 
L 595.150057 80.34 
" clip-path="url(#p11c15e2182)" style="fill: none; stroke: #cccccc; stroke-width: 0.8; stroke-linecap: round"/>
     </g>
     <g id="line2d_24"/>
     <g id="text_13">
      <!-- ER -->
      <g style="fill: #262626" transform="translate(588.702047 452.905449) rotate(-15) scale(0.1 -0.1)">
       <use xlink:href="#DejaVuSerif-45"/>
       <use xlink:href="#DejaVuSerif-52" x="72.998047"/>
      </g>
     </g>
    </g>
    <g id="xtick_7">
     <g id="line2d_25">
      <path d="M 680.615966 438.227717 
L 680.615966 80.34 
" clip-path="url(#p11c15e2182)" style="fill: none; stroke: #cccccc; stroke-width: 0.8; stroke-linecap: round"/>
     </g>
     <g id="line2d_26"/>
     <g id="text_14">
      <!-- HTCL-L2 -->
      <g style="fill: #262626" transform="translate(659.082156 460.989905) rotate(-15) scale(0.1 -0.1)">
       <use xlink:href="#DejaVuSerif-48"/>
       <use xlink:href="#DejaVuSerif-54" x="87.207031"/>
       <use xlink:href="#DejaVuSerif-43" x="153.90625"/>
       <use xlink:href="#DejaVuSerif-4c" x="230.419922"/>
       <use xlink:href="#DejaVuSerif-2d" x="296.826172"/>
       <use xlink:href="#DejaVuSerif-4c" x="330.615234"/>
       <use xlink:href="#DejaVuSerif-32" x="397.021484"/>
      </g>
     </g>
    </g>
    <g id="xtick_8">
     <g id="line2d_27">
      <path d="M 766.081875 438.227717 
L 766.081875 80.34 
" clip-path="url(#p11c15e2182)" style="fill: none; stroke: #cccccc; stroke-width: 0.8; stroke-linecap: round"/>
     </g>
     <g id="line2d_28"/>
     <g id="text_15">
      <!-- HTCL-L3 -->
      <g style="fill: #262626" transform="translate(744.548065 460.989905) rotate(-15) scale(0.1 -0.1)">
       <use xlink:href="#DejaVuSerif-48"/>
       <use xlink:href="#DejaVuSerif-54" x="87.207031"/>
       <use xlink:href="#DejaVuSerif-43" x="153.90625"/>
       <use xlink:href="#DejaVuSerif-4c" x="230.419922"/>
       <use xlink:href="#DejaVuSerif-2d" x="296.826172"/>
       <use xlink:href="#DejaVuSerif-4c" x="330.615234"/>
       <use xlink:href="#DejaVuSerif-33" x="397.021484"/>
      </g>
     </g>
    </g>
    <g id="xtick_9">
     <g id="line2d_29">
      <path d="M 851.547784 438.227717 
L 851.547784 80.34 
" clip-path="url(#p11c15e2182)" style="fill: none; stroke: #cccccc; stroke-width: 0.8; stroke-linecap: round"/>
     </g>
     <g id="line2d_30"/>
     <g id="text_16">
      <!-- HTCL-L4 -->
      <g style="fill: #262626" transform="translate(830.013974 460.989905) rotate(-15) scale(0.1 -0.1)">
       <use xlink:href="#DejaVuSerif-48"/>
       <use xlink:href="#DejaVuSerif-54" x="87.207031"/>
       <use xlink:href="#DejaVuSerif-43" x="153.90625"/>
       <use xlink:href="#DejaVuSerif-4c" x="230.419922"/>
       <use xlink:href="#DejaVuSerif-2d" x="296.826172"/>
       <use xlink:href="#DejaVuSerif-4c" x="330.615234"/>
       <use xlink:href="#DejaVuSerif-34" x="397.021484"/>
      </g>
     </g>
    </g>
    <g id="xtick_10">
     <g id="line2d_31">
      <path d="M 937.013693 438.227717 
L 937.013693 80.34 
" clip-path="url(#p11c15e2182)" style="fill: none; stroke: #cccccc; stroke-width: 0.8; stroke-linecap: round"/>
     </g>
     <g id="line2d_32"/>
     <g id="text_17">
      <!-- HTCL-L5 -->
      <g style="fill: #262626" transform="translate(915.479884 460.989905) rotate(-15) scale(0.1 -0.1)">
       <use xlink:href="#DejaVuSerif-48"/>
       <use xlink:href="#DejaVuSerif-54" x="87.207031"/>
       <use xlink:href="#DejaVuSerif-43" x="153.90625"/>
       <use xlink:href="#DejaVuSerif-4c" x="230.419922"/>
       <use xlink:href="#DejaVuSerif-2d" x="296.826172"/>
       <use xlink:href="#DejaVuSerif-4c" x="330.615234"/>
       <use xlink:href="#DejaVuSerif-35" x="397.021484"/>
      </g>
     </g>
    </g>
   </g>
   <g id="matplotlib.axis_4">
    <g id="ytick_6">
     <g id="line2d_33">
      <path d="M 540.451875 438.227717 
L 991.711875 438.227717 
" clip-path="url(#p11c15e2182)" style="fill: none; stroke-dasharray: 2.96,1.28; stroke-dashoffset: 0; stroke: #cccccc; stroke-opacity: 0.7; stroke-width: 0.8"/>
     </g>
     <g id="line2d_34"/>
     <g id="text_18">
      <!-- 0 -->
      <g style="fill: #262626" transform="translate(530.589375 442.026935) scale(0.1 -0.1)">
       <use xlink:href="#DejaVuSerif-30"/>
      </g>
     </g>
    </g>
    <g id="ytick_7">
     <g id="line2d_35">
      <path d="M 540.451875 387.65581 
L 991.711875 387.65581 
" clip-path="url(#p11c15e2182)" style="fill: none; stroke-dasharray: 2.96,1.28; stroke-dashoffset: 0; stroke: #cccccc; stroke-opacity: 0.7; stroke-width: 0.8"/>
     </g>
     <g id="line2d_36"/>
     <g id="text_19">
      <!-- 2 -->
      <g style="fill: #262626" transform="translate(530.589375 391.455029) scale(0.1 -0.1)">
       <use xlink:href="#DejaVuSerif-32"/>
      </g>
     </g>
    </g>
    <g id="ytick_8">
     <g id="line2d_37">
      <path d="M 540.451875 337.083903 
L 991.711875 337.083903 
" clip-path="url(#p11c15e2182)" style="fill: none; stroke-dasharray: 2.96,1.28; stroke-dashoffset: 0; stroke: #cccccc; stroke-opacity: 0.7; stroke-width: 0.8"/>
     </g>
     <g id="line2d_38"/>
     <g id="text_20">
      <!-- 4 -->
      <g style="fill: #262626" transform="translate(530.589375 340.883122) scale(0.1 -0.1)">
       <use xlink:href="#DejaVuSerif-34"/>
      </g>
     </g>
    </g>
    <g id="ytick_9">
     <g id="line2d_39">
      <path d="M 540.451875 286.511997 
L 991.711875 286.511997 
" clip-path="url(#p11c15e2182)" style="fill: none; stroke-dasharray: 2.96,1.28; stroke-dashoffset: 0; stroke: #cccccc; stroke-opacity: 0.7; stroke-width: 0.8"/>
     </g>
     <g id="line2d_40"/>
     <g id="text_21">
      <!-- 6 -->
      <g style="fill: #262626" transform="translate(530.589375 290.311216) scale(0.1 -0.1)">
       <use xlink:href="#DejaVuSerif-36"/>
      </g>
     </g>
    </g>
    <g id="ytick_10">
     <g id="line2d_41">
      <path d="M 540.451875 235.94009 
L 991.711875 235.94009 
" clip-path="url(#p11c15e2182)" style="fill: none; stroke-dasharray: 2.96,1.28; stroke-dashoffset: 0; stroke: #cccccc; stroke-opacity: 0.7; stroke-width: 0.8"/>
     </g>
     <g id="line2d_42"/>
     <g id="text_22">
      <!-- 8 -->
      <g style="fill: #262626" transform="translate(530.589375 239.739309) scale(0.1 -0.1)">
       <use xlink:href="#DejaVuSerif-38"/>
      </g>
     </g>
    </g>
    <g id="ytick_11">
     <g id="line2d_43">
      <path d="M 540.451875 185.368184 
L 991.711875 185.368184 
" clip-path="url(#p11c15e2182)" style="fill: none; stroke-dasharray: 2.96,1.28; stroke-dashoffset: 0; stroke: #cccccc; stroke-opacity: 0.7; stroke-width: 0.8"/>
     </g>
     <g id="line2d_44"/>
     <g id="text_23">
      <!-- 10 -->
      <g style="fill: #262626" transform="translate(524.226875 189.167403) scale(0.1 -0.1)">
       <defs>
        <path id="DejaVuSerif-31" d="M 909 0 
L 909 331 
L 1722 331 
L 1722 4213 
L 781 3603 
L 781 4013 
L 1919 4750 
L 2350 4750 
L 2350 331 
L 3163 331 
L 3163 0 
L 909 0 
z
" transform="scale(0.015625)"/>
       </defs>
       <use xlink:href="#DejaVuSerif-31"/>
       <use xlink:href="#DejaVuSerif-30" x="63.623047"/>
      </g>
     </g>
    </g>
    <g id="ytick_12">
     <g id="line2d_45">
      <path d="M 540.451875 134.796277 
L 991.711875 134.796277 
" clip-path="url(#p11c15e2182)" style="fill: none; stroke-dasharray: 2.96,1.28; stroke-dashoffset: 0; stroke: #cccccc; stroke-opacity: 0.7; stroke-width: 0.8"/>
     </g>
     <g id="line2d_46"/>
     <g id="text_24">
      <!-- 12 -->
      <g style="fill: #262626" transform="translate(524.226875 138.595496) scale(0.1 -0.1)">
       <use xlink:href="#DejaVuSerif-31"/>
       <use xlink:href="#DejaVuSerif-32" x="63.623047"/>
      </g>
     </g>
    </g>
    <g id="ytick_13">
     <g id="line2d_47">
      <path d="M 540.451875 84.224371 
L 991.711875 84.224371 
" clip-path="url(#p11c15e2182)" style="fill: none; stroke-dasharray: 2.96,1.28; stroke-dashoffset: 0; stroke: #cccccc; stroke-opacity: 0.7; stroke-width: 0.8"/>
     </g>
     <g id="line2d_48"/>
     <g id="text_25">
      <!-- 14 -->
      <g style="fill: #262626" transform="translate(524.226875 88.023589) scale(0.1 -0.1)">
       <use xlink:href="#DejaVuSerif-31"/>
       <use xlink:href="#DejaVuSerif-34" x="63.623047"/>
      </g>
     </g>
    </g>
    <g id="text_26">
     <!-- Std. Deviation (%) -->
     <g style="fill: #262626" transform="translate(517.73125 320.316983) rotate(-90) scale(0.12 -0.12)">
      <defs>
       <path id="DejaVuSerif-Bold-53" d="M 494 225 
L 494 1331 
L 891 1331 
Q 981 806 1318 547 
Q 1656 288 2253 288 
Q 2738 288 2991 472 
Q 3244 656 3244 1013 
Q 3244 1294 3072 1450 
Q 2900 1606 2363 1741 
L 1663 1913 
Q 978 2088 700 2398 
Q 422 2709 422 3284 
Q 422 3978 883 4364 
Q 1344 4750 2175 4750 
Q 2584 4750 3026 4681 
Q 3469 4613 3944 4475 
L 3944 3444 
L 3547 3444 
Q 3456 3925 3150 4148 
Q 2844 4372 2278 4372 
Q 1816 4372 1580 4211 
Q 1344 4050 1344 3731 
Q 1344 3441 1506 3289 
Q 1669 3138 2303 2975 
L 3003 2803 
Q 3653 2641 3945 2297 
Q 4238 1953 4238 1350 
Q 4238 644 3750 276 
Q 3263 -91 2316 -91 
Q 1859 -91 1409 -12 
Q 959 66 494 225 
z
" transform="scale(0.015625)"/>
       <path id="DejaVuSerif-Bold-74" d="M 634 2944 
L 153 2944 
L 153 3322 
L 634 3322 
L 634 4353 
L 1741 4353 
L 1741 3322 
L 2663 3322 
L 2663 2944 
L 1741 2944 
L 1741 909 
Q 1741 475 1809 369 
Q 1878 263 2059 263 
Q 2259 263 2356 397 
Q 2453 531 2459 813 
L 2925 813 
Q 2897 313 2651 111 
Q 2406 -91 1806 -91 
Q 1122 -91 878 123 
Q 634 338 634 909 
L 634 2944 
z
" transform="scale(0.015625)"/>
       <path id="DejaVuSerif-Bold-64" d="M 2747 1497 
L 2747 1825 
Q 2747 2406 2597 2665 
Q 2447 2925 2119 2925 
Q 1775 2925 1636 2651 
Q 1497 2378 1497 1663 
Q 1497 947 1637 672 
Q 1778 397 2119 397 
Q 2447 397 2597 656 
Q 2747 916 2747 1497 
z
M 3853 378 
L 4325 378 
L 4325 0 
L 2747 0 
L 2747 422 
Q 2606 163 2367 36 
Q 2128 -91 1778 -91 
Q 1072 -91 667 378 
Q 263 847 263 1663 
Q 263 2481 667 2947 
Q 1072 3413 1778 3413 
Q 2128 3413 2367 3286 
Q 2606 3159 2747 2900 
L 2747 4488 
L 2272 4488 
L 2272 4863 
L 3853 4863 
L 3853 378 
z
" transform="scale(0.015625)"/>
       <path id="DejaVuSerif-Bold-2e" d="M 519 506 
Q 519 750 694 925 
Q 869 1100 1113 1100 
Q 1359 1100 1534 925 
Q 1709 750 1709 506 
Q 1709 259 1534 84 
Q 1359 -91 1113 -91 
Q 869 -91 694 84 
Q 519 259 519 506 
z
" transform="scale(0.015625)"/>
       <path id="DejaVuSerif-Bold-44" d="M 2100 378 
L 2534 378 
Q 3266 378 3605 847 
Q 3944 1316 3944 2338 
Q 3944 3353 3606 3820 
Q 3269 4288 2534 4288 
L 2100 4288 
L 2100 378 
z
M 300 0 
L 300 378 
L 897 378 
L 897 4288 
L 300 4288 
L 300 4666 
L 2694 4666 
Q 3950 4666 4615 4066 
Q 5281 3466 5281 2338 
Q 5281 1203 4614 601 
Q 3947 0 2694 0 
L 300 0 
z
" transform="scale(0.015625)"/>
       <path id="DejaVuSerif-Bold-76" d="M 1428 0 
L 250 2944 
L -116 2944 
L -116 3322 
L 1791 3322 
L 1791 2944 
L 1388 2944 
L 2228 844 
L 3066 2944 
L 2631 2944 
L 2631 3322 
L 3878 3322 
L 3878 2944 
L 3494 2944 
L 2316 0 
L 1428 0 
z
" transform="scale(0.015625)"/>
      </defs>
      <use xlink:href="#DejaVuSerif-Bold-53"/>
      <use xlink:href="#DejaVuSerif-Bold-74" x="72.216797"/>
      <use xlink:href="#DejaVuSerif-Bold-64" x="118.408203"/>
      <use xlink:href="#DejaVuSerif-Bold-2e" x="188.330078"/>
      <use xlink:href="#DejaVuSerif-Bold-20" x="223.144531"/>
      <use xlink:href="#DejaVuSerif-Bold-44" x="257.958984"/>
      <use xlink:href="#DejaVuSerif-Bold-65" x="344.677734"/>
      <use xlink:href="#DejaVuSerif-Bold-76" x="408.300781"/>
      <use xlink:href="#DejaVuSerif-Bold-69" x="466.40625"/>
      <use xlink:href="#DejaVuSerif-Bold-61" x="504.394531"/>
      <use xlink:href="#DejaVuSerif-Bold-74" x="569.189453"/>
      <use xlink:href="#DejaVuSerif-Bold-69" x="615.380859"/>
      <use xlink:href="#DejaVuSerif-Bold-6f" x="653.369141"/>
      <use xlink:href="#DejaVuSerif-Bold-6e" x="720.068359"/>
      <use xlink:href="#DejaVuSerif-Bold-20" x="792.773438"/>
      <use xlink:href="#DejaVuSerif-Bold-28" x="827.587891"/>
      <use xlink:href="#DejaVuSerif-Bold-25" x="874.902344"/>
      <use xlink:href="#DejaVuSerif-Bold-29" x="969.921875"/>
     </g>
    </g>
   </g>
   <g id="patch_11">
    <path d="M 560.963693 438.227717 
L 629.33642 438.227717 
L 629.33642 226.017324 
L 560.963693 226.017324 
z
" clip-path="url(#p11c15e2182)" style="fill: #3498db; opacity: 0.8; stroke: #000000; stroke-linejoin: miter"/>
   </g>
   <g id="patch_12">
    <path d="M 646.429602 438.227717 
L 714.80233 438.227717 
L 714.80233 288.047771 
L 646.429602 288.047771 
z
" clip-path="url(#p11c15e2182)" style="fill: #3498db; opacity: 0.8; stroke: #000000; stroke-linejoin: miter"/>
   </g>
   <g id="patch_13">
    <path d="M 731.895511 438.227717 
L 800.268239 438.227717 
L 800.268239 331.458577 
L 731.895511 331.458577 
z
" clip-path="url(#p11c15e2182)" style="fill: #e74c3c; opacity: 0.8; stroke: #000000; stroke-linejoin: miter"/>
   </g>
   <g id="patch_14">
    <path d="M 817.36142 438.227717 
L 885.734148 438.227717 
L 885.734148 97.382272 
L 817.36142 97.382272 
z
" clip-path="url(#p11c15e2182)" style="fill: #2ecc71; opacity: 0.8; stroke: #000000; stroke-linejoin: miter"/>
   </g>
   <g id="patch_15">
    <path d="M 902.82733 438.227717 
L 971.200057 438.227717 
L 971.200057 348.126389 
L 902.82733 348.126389 
z
" clip-path="url(#p11c15e2182)" style="fill: #9b59b6; opacity: 0.8; stroke: #000000; stroke-linejoin: miter"/>
   </g>
   <g id="patch_16">
    <path d="M 540.451875 438.227717 
L 540.451875 80.34 
" style="fill: none; stroke: #cccccc; stroke-linejoin: miter; stroke-linecap: square"/>
   </g>
   <g id="patch_17">
    <path d="M 540.451875 438.227717 
L 991.711875 438.227717 
" style="fill: none; stroke: #cccccc; stroke-linejoin: miter; stroke-linecap: square"/>
   </g>
   <g id="text_27">
    <!-- (b) Task-Order Sensitivity -->
    <g style="fill: #262626" transform="translate(672.464609 74.34) scale(0.13 -0.13)">
     <defs>
      <path id="DejaVuSerif-Bold-62" d="M 622 378 
L 622 4488 
L 147 4488 
L 147 4863 
L 1728 4863 
L 1728 2900 
Q 1869 3159 2106 3286 
Q 2344 3413 2694 3413 
Q 3403 3413 3811 2945 
Q 4219 2478 4219 1663 
Q 4219 847 3811 378 
Q 3403 -91 2694 -91 
Q 2344 -91 2106 36 
Q 1869 163 1728 422 
L 1728 0 
L 147 0 
L 147 378 
L 622 378 
z
M 1728 1497 
Q 1728 916 1876 656 
Q 2025 397 2356 397 
Q 2697 397 2836 672 
Q 2975 947 2975 1663 
Q 2975 2378 2836 2651 
Q 2697 2925 2356 2925 
Q 2025 2925 1876 2665 
Q 1728 2406 1728 1825 
L 1728 1497 
z
" transform="scale(0.015625)"/>
      <path id="DejaVuSerif-Bold-54" d="M 1159 0 
L 1159 378 
L 1778 378 
L 1778 4238 
L 500 4238 
L 500 3500 
L 72 3500 
L 72 4666 
L 4697 4666 
L 4697 3500 
L 4275 3500 
L 4275 4238 
L 2988 4238 
L 2988 378 
L 3609 378 
L 3609 0 
L 1159 0 
z
" transform="scale(0.015625)"/>
      <path id="DejaVuSerif-Bold-6b" d="M 2216 0 
L 219 0 
L 219 378 
L 691 378 
L 691 4488 
L 219 4488 
L 219 4863 
L 1797 4863 
L 1797 1741 
L 3138 2944 
L 2741 2944 
L 2741 3322 
L 4256 3322 
L 4256 2944 
L 3641 2944 
L 2784 2175 
L 4184 378 
L 4544 378 
L 4544 0 
L 2638 0 
L 2638 378 
L 3028 378 
L 2106 1563 
L 1797 1288 
L 1797 378 
L 2216 378 
L 2216 0 
z
" transform="scale(0.015625)"/>
      <path id="DejaVuSerif-Bold-2d" d="M 347 2138 
L 2309 2138 
L 2309 1294 
L 347 1294 
L 347 2138 
z
" transform="scale(0.015625)"/>
      <path id="DejaVuSerif-Bold-4f" d="M 2784 288 
Q 3381 288 3672 791 
Q 3963 1294 3963 2328 
Q 3963 3366 3672 3869 
Q 3381 4372 2784 4372 
Q 2191 4372 1898 3864 
Q 1606 3356 1606 2328 
Q 1606 1303 1898 795 
Q 2191 288 2784 288 
z
M 2784 -91 
Q 1606 -91 937 553 
Q 269 1197 269 2328 
Q 269 3459 939 4104 
Q 1609 4750 2784 4750 
Q 3963 4750 4631 4106 
Q 5300 3463 5300 2328 
Q 5300 1197 4629 553 
Q 3959 -91 2784 -91 
z
" transform="scale(0.015625)"/>
     </defs>
     <use xlink:href="#DejaVuSerif-Bold-28"/>
     <use xlink:href="#DejaVuSerif-Bold-62" x="47.314453"/>
     <use xlink:href="#DejaVuSerif-Bold-29" x="117.236328"/>
     <use xlink:href="#DejaVuSerif-Bold-20" x="164.550781"/>
     <use xlink:href="#DejaVuSerif-Bold-54" x="199.365234"/>
     <use xlink:href="#DejaVuSerif-Bold-61" x="264.154297"/>
     <use xlink:href="#DejaVuSerif-Bold-73" x="328.949219"/>
     <use xlink:href="#DejaVuSerif-Bold-6b" x="385.248047"/>
     <use xlink:href="#DejaVuSerif-Bold-2d" x="450.535156"/>
     <use xlink:href="#DejaVuSerif-Bold-4f" x="492.039062"/>
     <use xlink:href="#DejaVuSerif-Bold-72" x="579.148438"/>
     <use xlink:href="#DejaVuSerif-Bold-64" x="631.833984"/>
     <use xlink:href="#DejaVuSerif-Bold-65" x="701.755859"/>
     <use xlink:href="#DejaVuSerif-Bold-72" x="765.378906"/>
     <use xlink:href="#DejaVuSerif-Bold-20" x="818.064453"/>
     <use xlink:href="#DejaVuSerif-Bold-53" x="852.878906"/>
     <use xlink:href="#DejaVuSerif-Bold-65" x="925.095703"/>
     <use xlink:href="#DejaVuSerif-Bold-6e" x="988.71875"/>
     <use xlink:href="#DejaVuSerif-Bold-73" x="1061.423828"/>
     <use xlink:href="#DejaVuSerif-Bold-69" x="1117.722656"/>
     <use xlink:href="#DejaVuSerif-Bold-74" x="1155.710938"/>
     <use xlink:href="#DejaVuSerif-Bold-69" x="1201.902344"/>
     <use xlink:href="#DejaVuSerif-Bold-76" x="1239.890625"/>
     <use xlink:href="#DejaVuSerif-Bold-69" x="1297.996094"/>
     <use xlink:href="#DejaVuSerif-Bold-74" x="1335.984375"/>
     <use xlink:href="#DejaVuSerif-Bold-79" x="1382.175781"/>
    </g>
   </g>
  </g>
  <g id="axes_3">
   <g id="patch_18">
    <path d="M 45.571875 848.46 
L 496.831875 848.46 
L 496.831875 490.572283 
L 45.571875 490.572283 
z
" style="fill: #ffffff"/>
   </g>
   <g id="matplotlib.axis_5">
    <g id="xtick_11">
     <g id="line2d_49">
      <path d="M 66.083693 848.46 
L 66.083693 490.572283 
" clip-path="url(#p36b2136edf)" style="fill: none; stroke: #cccccc; stroke-width: 0.8; stroke-linecap: round"/>
     </g>
     <g id="line2d_50"/>
     <g id="text_28">
      <!-- 1 -->
      <g style="fill: #262626" transform="translate(62.902443 859.558437) scale(0.1 -0.1)">
       <use xlink:href="#DejaVuSerif-31"/>
      </g>
     </g>
    </g>
    <g id="xtick_12">
     <g id="line2d_51">
      <path d="M 168.642784 848.46 
L 168.642784 490.572283 
" clip-path="url(#p36b2136edf)" style="fill: none; stroke: #cccccc; stroke-width: 0.8; stroke-linecap: round"/>
     </g>
     <g id="line2d_52"/>
     <g id="text_29">
      <!-- 2 -->
      <g style="fill: #262626" transform="translate(165.461534 859.558437) scale(0.1 -0.1)">
       <use xlink:href="#DejaVuSerif-32"/>
      </g>
     </g>
    </g>
    <g id="xtick_13">
     <g id="line2d_53">
      <path d="M 271.201875 848.46 
L 271.201875 490.572283 
" clip-path="url(#p36b2136edf)" style="fill: none; stroke: #cccccc; stroke-width: 0.8; stroke-linecap: round"/>
     </g>
     <g id="line2d_54"/>
     <g id="text_30">
      <!-- 3 -->
      <g style="fill: #262626" transform="translate(268.020625 859.558437) scale(0.1 -0.1)">
       <use xlink:href="#DejaVuSerif-33"/>
      </g>
     </g>
    </g>
    <g id="xtick_14">
     <g id="line2d_55">
      <path d="M 373.760966 848.46 
L 373.760966 490.572283 
" clip-path="url(#p36b2136edf)" style="fill: none; stroke: #cccccc; stroke-width: 0.8; stroke-linecap: round"/>
     </g>
     <g id="line2d_56"/>
     <g id="text_31">
      <!-- 4 -->
      <g style="fill: #262626" transform="translate(370.579716 859.558437) scale(0.1 -0.1)">
       <use xlink:href="#DejaVuSerif-34"/>
      </g>
     </g>
    </g>
    <g id="xtick_15">
     <g id="line2d_57">
      <path d="M 476.320057 848.46 
L 476.320057 490.572283 
" clip-path="url(#p36b2136edf)" style="fill: none; stroke: #cccccc; stroke-width: 0.8; stroke-linecap: round"/>
     </g>
     <g id="line2d_58"/>
     <g id="text_32">
      <!-- 5 -->
      <g style="fill: #262626" transform="translate(473.138807 859.558437) scale(0.1 -0.1)">
       <use xlink:href="#DejaVuSerif-35"/>
      </g>
     </g>
    </g>
    <g id="text_33">
     <!-- Task -->
     <g style="fill: #262626" transform="translate(255.891562 874.75625) scale(0.12 -0.12)">
      <use xlink:href="#DejaVuSerif-Bold-54"/>
      <use xlink:href="#DejaVuSerif-Bold-61" x="64.789062"/>
      <use xlink:href="#DejaVuSerif-Bold-73" x="129.583984"/>
      <use xlink:href="#DejaVuSerif-Bold-6b" x="185.882812"/>
     </g>
    </g>
   </g>
   <g id="matplotlib.axis_6">
    <g id="ytick_14">
     <g id="line2d_59">
      <path d="M 45.571875 848.46 
L 496.831875 848.46 
" clip-path="url(#p36b2136edf)" style="fill: none; stroke-dasharray: 2.96,1.28; stroke-dashoffset: 0; stroke: #cccccc; stroke-opacity: 0.7; stroke-width: 0.8"/>
     </g>
     <g id="line2d_60"/>
     <g id="text_34">
      <!-- 0 -->
      <g style="fill: #262626" transform="translate(35.709375 852.259219) scale(0.1 -0.1)">
       <use xlink:href="#DejaVuSerif-30"/>
      </g>
     </g>
    </g>
    <g id="ytick_15">
     <g id="line2d_61">
      <path d="M 45.571875 780.290911 
L 496.831875 780.290911 
" clip-path="url(#p36b2136edf)" style="fill: none; stroke-dasharray: 2.96,1.28; stroke-dashoffset: 0; stroke: #cccccc; stroke-opacity: 0.7; stroke-width: 0.8"/>
     </g>
     <g id="line2d_62"/>
     <g id="text_35">
      <!-- 20 -->
      <g style="fill: #262626" transform="translate(29.346875 784.09013) scale(0.1 -0.1)">
       <use xlink:href="#DejaVuSerif-32"/>
       <use xlink:href="#DejaVuSerif-30" x="63.623047"/>
      </g>
     </g>
    </g>
    <g id="ytick_16">
     <g id="line2d_63">
      <path d="M 45.571875 712.121822 
L 496.831875 712.121822 
" clip-path="url(#p36b2136edf)" style="fill: none; stroke-dasharray: 2.96,1.28; stroke-dashoffset: 0; stroke: #cccccc; stroke-opacity: 0.7; stroke-width: 0.8"/>
     </g>
     <g id="line2d_64"/>
     <g id="text_36">
      <!-- 40 -->
      <g style="fill: #262626" transform="translate(29.346875 715.921041) scale(0.1 -0.1)">
       <use xlink:href="#DejaVuSerif-34"/>
       <use xlink:href="#DejaVuSerif-30" x="63.623047"/>
      </g>
     </g>
    </g>
    <g id="ytick_17">
     <g id="line2d_65">
      <path d="M 45.571875 643.952733 
L 496.831875 643.952733 
" clip-path="url(#p36b2136edf)" style="fill: none; stroke-dasharray: 2.96,1.28; stroke-dashoffset: 0; stroke: #cccccc; stroke-opacity: 0.7; stroke-width: 0.8"/>
     </g>
     <g id="line2d_66"/>
     <g id="text_37">
      <!-- 60 -->
      <g style="fill: #262626" transform="translate(29.346875 647.751952) scale(0.1 -0.1)">
       <use xlink:href="#DejaVuSerif-36"/>
       <use xlink:href="#DejaVuSerif-30" x="63.623047"/>
      </g>
     </g>
    </g>
    <g id="ytick_18">
     <g id="line2d_67">
      <path d="M 45.571875 575.783645 
L 496.831875 575.783645 
" clip-path="url(#p36b2136edf)" style="fill: none; stroke-dasharray: 2.96,1.28; stroke-dashoffset: 0; stroke: #cccccc; stroke-opacity: 0.7; stroke-width: 0.8"/>
     </g>
     <g id="line2d_68"/>
     <g id="text_38">
      <!-- 80 -->
      <g style="fill: #262626" transform="translate(29.346875 579.582863) scale(0.1 -0.1)">
       <use xlink:href="#DejaVuSerif-38"/>
       <use xlink:href="#DejaVuSerif-30" x="63.623047"/>
      </g>
     </g>
    </g>
    <g id="ytick_19">
     <g id="line2d_69">
      <path d="M 45.571875 507.614556 
L 496.831875 507.614556 
" clip-path="url(#p36b2136edf)" style="fill: none; stroke-dasharray: 2.96,1.28; stroke-dashoffset: 0; stroke: #cccccc; stroke-opacity: 0.7; stroke-width: 0.8"/>
     </g>
     <g id="line2d_70"/>
     <g id="text_39">
      <!-- 100 -->
      <g style="fill: #262626" transform="translate(22.984375 511.413774) scale(0.1 -0.1)">
       <use xlink:href="#DejaVuSerif-31"/>
       <use xlink:href="#DejaVuSerif-30" x="63.623047"/>
       <use xlink:href="#DejaVuSerif-30" x="127.246094"/>
      </g>
     </g>
    </g>
    <g id="text_40">
     <!-- Accuracy (%) -->
     <g style="fill: #262626" transform="translate(16.318125 713.497079) rotate(-90) scale(0.12 -0.12)">
      <use xlink:href="#DejaVuSerif-Bold-41"/>
      <use xlink:href="#DejaVuSerif-Bold-63" x="77.587891"/>
      <use xlink:href="#DejaVuSerif-Bold-63" x="138.476562"/>
      <use xlink:href="#DejaVuSerif-Bold-75" x="199.365234"/>
      <use xlink:href="#DejaVuSerif-Bold-72" x="272.070312"/>
      <use xlink:href="#DejaVuSerif-Bold-61" x="324.755859"/>
      <use xlink:href="#DejaVuSerif-Bold-63" x="389.550781"/>
      <use xlink:href="#DejaVuSerif-Bold-79" x="450.439453"/>
      <use xlink:href="#DejaVuSerif-Bold-20" x="508.544922"/>
      <use xlink:href="#DejaVuSerif-Bold-28" x="543.359375"/>
      <use xlink:href="#DejaVuSerif-Bold-25" x="590.673828"/>
      <use xlink:href="#DejaVuSerif-Bold-29" x="685.693359"/>
     </g>
    </g>
   </g>
   <g id="line2d_71">
    <path d="M 66.083693 598.222636 
L 168.642784 565.416262 
L 271.201875 592.541879 
L 373.760966 551.498407 
L 476.320057 593.962068 
" clip-path="url(#p36b2136edf)" style="fill: none; stroke: #3498db; stroke-width: 2; stroke-linecap: round"/>
    <defs>
     <path id="m9c6f6a4b68" d="M 0 3 
C 0.795609 3 1.55874 2.683901 2.12132 2.12132 
C 2.683901 1.55874 3 0.795609 3 0 
C 3 -0.795609 2.683901 -1.55874 2.12132 -2.12132 
C 1.55874 -2.683901 0.795609 -3 0 -3 
C -0.795609 -3 -1.55874 -2.683901 -2.12132 -2.12132 
C -2.683901 -1.55874 -3 -0.795609 -3 0 
C -3 0.795609 -2.683901 1.55874 -2.12132 2.12132 
C -1.55874 2.683901 -0.795609 3 0 3 
z
" style="stroke: #3498db"/>
    </defs>
    <g clip-path="url(#p36b2136edf)">
     <use xlink:href="#m9c6f6a4b68" x="66.083693" y="598.222636" style="fill: #3498db; stroke: #3498db"/>
     <use xlink:href="#m9c6f6a4b68" x="168.642784" y="565.416262" style="fill: #3498db; stroke: #3498db"/>
     <use xlink:href="#m9c6f6a4b68" x="271.201875" y="592.541879" style="fill: #3498db; stroke: #3498db"/>
     <use xlink:href="#m9c6f6a4b68" x="373.760966" y="551.498407" style="fill: #3498db; stroke: #3498db"/>
     <use xlink:href="#m9c6f6a4b68" x="476.320057" y="593.962068" style="fill: #3498db; stroke: #3498db"/>
    </g>
   </g>
   <g id="line2d_72">
    <path d="M 66.083693 542.267176 
L 168.642784 549.084085 
L 271.201875 549.65216 
L 373.760966 550.788312 
L 476.320057 559.309448 
" clip-path="url(#p36b2136edf)" style="fill: none; stroke: #e74c3c; stroke-width: 2; stroke-linecap: round"/>
    <defs>
     <path id="ma09d77669e" d="M -3 3 
L 3 3 
L 3 -3 
L -3 -3 
z
" style="stroke: #e74c3c; stroke-linejoin: miter"/>
    </defs>
    <g clip-path="url(#p36b2136edf)">
     <use xlink:href="#ma09d77669e" x="66.083693" y="542.267176" style="fill: #e74c3c; stroke: #e74c3c; stroke-linejoin: miter"/>
     <use xlink:href="#ma09d77669e" x="168.642784" y="549.084085" style="fill: #e74c3c; stroke: #e74c3c; stroke-linejoin: miter"/>
     <use xlink:href="#ma09d77669e" x="271.201875" y="549.65216" style="fill: #e74c3c; stroke: #e74c3c; stroke-linejoin: miter"/>
     <use xlink:href="#ma09d77669e" x="373.760966" y="550.788312" style="fill: #e74c3c; stroke: #e74c3c; stroke-linejoin: miter"/>
     <use xlink:href="#ma09d77669e" x="476.320057" y="559.309448" style="fill: #e74c3c; stroke: #e74c3c; stroke-linejoin: miter"/>
    </g>
   </g>
   <g id="patch_19">
    <path d="M 45.571875 848.46 
L 45.571875 490.572283 
" style="fill: none; stroke: #cccccc; stroke-linejoin: miter; stroke-linecap: square"/>
   </g>
   <g id="patch_20">
    <path d="M 45.571875 848.46 
L 496.831875 848.46 
" style="fill: none; stroke: #cccccc; stroke-linejoin: miter; stroke-linecap: square"/>
   </g>
   <g id="text_41">
    <!-- (c) Per-Task Accuracy -->
    <g style="fill: #262626" transform="translate(193.022109 484.572283) scale(0.13 -0.13)">
     <defs>
      <path id="DejaVuSerif-Bold-50" d="M 300 0 
L 300 378 
L 897 378 
L 897 4288 
L 300 4288 
L 300 4666 
L 2956 4666 
Q 3734 4666 4193 4295 
Q 4653 3925 4653 3303 
Q 4653 2678 4192 2304 
Q 3731 1931 2956 1931 
L 2100 1931 
L 2100 378 
L 2853 378 
L 2853 0 
L 300 0 
z
M 2100 2309 
L 2450 2309 
Q 2856 2309 3098 2579 
Q 3341 2850 3341 3303 
Q 3341 3753 3100 4020 
Q 2859 4288 2450 4288 
L 2100 4288 
L 2100 2309 
z
" transform="scale(0.015625)"/>
     </defs>
     <use xlink:href="#DejaVuSerif-Bold-28"/>
     <use xlink:href="#DejaVuSerif-Bold-63" x="47.314453"/>
     <use xlink:href="#DejaVuSerif-Bold-29" x="108.203125"/>
     <use xlink:href="#DejaVuSerif-Bold-20" x="155.517578"/>
     <use xlink:href="#DejaVuSerif-Bold-50" x="190.332031"/>
     <use xlink:href="#DejaVuSerif-Bold-65" x="262.902344"/>
     <use xlink:href="#DejaVuSerif-Bold-72" x="326.525391"/>
     <use xlink:href="#DejaVuSerif-Bold-2d" x="379.210938"/>
     <use xlink:href="#DejaVuSerif-Bold-54" x="404.214844"/>
     <use xlink:href="#DejaVuSerif-Bold-61" x="469.003906"/>
     <use xlink:href="#DejaVuSerif-Bold-73" x="533.798828"/>
     <use xlink:href="#DejaVuSerif-Bold-6b" x="590.097656"/>
     <use xlink:href="#DejaVuSerif-Bold-20" x="659.384766"/>
     <use xlink:href="#DejaVuSerif-Bold-41" x="694.199219"/>
     <use xlink:href="#DejaVuSerif-Bold-63" x="771.787109"/>
     <use xlink:href="#DejaVuSerif-Bold-63" x="832.675781"/>
     <use xlink:href="#DejaVuSerif-Bold-75" x="893.564453"/>
     <use xlink:href="#DejaVuSerif-Bold-72" x="966.269531"/>
     <use xlink:href="#DejaVuSerif-Bold-61" x="1018.955078"/>
     <use xlink:href="#DejaVuSerif-Bold-63" x="1083.75"/>
     <use xlink:href="#DejaVuSerif-Bold-79" x="1144.638672"/>
    </g>
   </g>
   <g id="legend_1">
    <g id="line2d_73">
     <path d="M 54.571875 819.202187 
L 64.571875 819.202187 
L 74.571875 819.202187 
" style="fill: none; stroke: #3498db; stroke-width: 2; stroke-linecap: round"/>
     <g>
      <use xlink:href="#m9c6f6a4b68" x="64.571875" y="819.202187" style="fill: #3498db; stroke: #3498db"/>
     </g>
    </g>
    <g id="text_42">
     <!-- ER -->
     <g style="fill: #262626" transform="translate(82.571875 822.702187) scale(0.1 -0.1)">
      <use xlink:href="#DejaVuSerif-45"/>
      <use xlink:href="#DejaVuSerif-52" x="72.998047"/>
     </g>
    </g>
    <g id="line2d_74">
     <path d="M 54.571875 833.880312 
L 64.571875 833.880312 
L 74.571875 833.880312 
" style="fill: none; stroke: #e74c3c; stroke-width: 2; stroke-linecap: round"/>
     <g>
      <use xlink:href="#ma09d77669e" x="64.571875" y="833.880312" style="fill: #e74c3c; stroke: #e74c3c; stroke-linejoin: miter"/>
     </g>
    </g>
    <g id="text_43">
     <!-- HTCL-L2 -->
     <g style="fill: #262626" transform="translate(82.571875 837.380312) scale(0.1 -0.1)">
      <use xlink:href="#DejaVuSerif-48"/>
      <use xlink:href="#DejaVuSerif-54" x="87.207031"/>
      <use xlink:href="#DejaVuSerif-43" x="153.90625"/>
      <use xlink:href="#DejaVuSerif-4c" x="230.419922"/>
      <use xlink:href="#DejaVuSerif-2d" x="296.826172"/>
      <use xlink:href="#DejaVuSerif-4c" x="330.615234"/>
      <use xlink:href="#DejaVuSerif-32" x="397.021484"/>
     </g>
    </g>
   </g>
  </g>
  <g id="axes_4">
   <g id="patch_21">
    <path d="M 540.451875 848.46 
L 991.711875 848.46 
L 991.711875 490.572283 
L 540.451875 490.572283 
z
" style="fill: #ffffff"/>
   </g>
   <g id="matplotlib.axis_7">
    <g id="xtick_16">
     <g id="line2d_75">
      <path d="M 560.963693 848.46 
L 560.963693 490.572283 
" clip-path="url(#p3675baab1b)" style="fill: none; stroke: #cccccc; stroke-width: 0.8; stroke-linecap: round"/>
     </g>
     <g id="line2d_76"/>
     <g id="text_44">
      <!-- 2 -->
      <g style="fill: #262626" transform="translate(557.782443 859.558437) scale(0.1 -0.1)">
       <use xlink:href="#DejaVuSerif-32"/>
      </g>
     </g>
    </g>
    <g id="xtick_17">
     <g id="line2d_77">
      <path d="M 697.709148 848.46 
L 697.709148 490.572283 
" clip-path="url(#p3675baab1b)" style="fill: none; stroke: #cccccc; stroke-width: 0.8; stroke-linecap: round"/>
     </g>
     <g id="line2d_78"/>
     <g id="text_45">
      <!-- 3 -->
      <g style="fill: #262626" transform="translate(694.527898 859.558437) scale(0.1 -0.1)">
       <use xlink:href="#DejaVuSerif-33"/>
      </g>
     </g>
    </g>
    <g id="xtick_18">
     <g id="line2d_79">
      <path d="M 834.454602 848.46 
L 834.454602 490.572283 
" clip-path="url(#p3675baab1b)" style="fill: none; stroke: #cccccc; stroke-width: 0.8; stroke-linecap: round"/>
     </g>
     <g id="line2d_80"/>
     <g id="text_46">
      <!-- 4 -->
      <g style="fill: #262626" transform="translate(831.273352 859.558437) scale(0.1 -0.1)">
       <use xlink:href="#DejaVuSerif-34"/>
      </g>
     </g>
    </g>
    <g id="xtick_19">
     <g id="line2d_81">
      <path d="M 971.200057 848.46 
L 971.200057 490.572283 
" clip-path="url(#p3675baab1b)" style="fill: none; stroke: #cccccc; stroke-width: 0.8; stroke-linecap: round"/>
     </g>
     <g id="line2d_82"/>
     <g id="text_47">
      <!-- 5 -->
      <g style="fill: #262626" transform="translate(968.018807 859.558437) scale(0.1 -0.1)">
       <use xlink:href="#DejaVuSerif-35"/>
      </g>
     </g>
    </g>
    <g id="text_48">
     <!-- Hierarchy Levels (L) -->
     <g style="fill: #262626" transform="translate(697.532812 874.75625) scale(0.12 -0.12)">
      <defs>
       <path id="DejaVuSerif-Bold-48" d="M 300 0 
L 300 378 
L 897 378 
L 897 4288 
L 300 4288 
L 300 4666 
L 2700 4666 
L 2700 4288 
L 2100 4288 
L 2100 2719 
L 3956 2719 
L 3956 4288 
L 3359 4288 
L 3359 4666 
L 5759 4666 
L 5759 4288 
L 5159 4288 
L 5159 378 
L 5759 378 
L 5759 0 
L 3359 0 
L 3359 378 
L 3956 378 
L 3956 2291 
L 2100 2291 
L 2100 378 
L 2700 378 
L 2700 0 
L 300 0 
z
" transform="scale(0.015625)"/>
       <path id="DejaVuSerif-Bold-68" d="M 219 0 
L 219 378 
L 691 378 
L 691 4488 
L 197 4488 
L 197 4863 
L 1797 4863 
L 1797 2853 
Q 1997 3150 2253 3281 
Q 2509 3413 2900 3413 
Q 3459 3413 3745 3083 
Q 4031 2753 4031 2113 
L 4031 378 
L 4506 378 
L 4506 0 
L 2522 0 
L 2522 378 
L 2925 378 
L 2925 2144 
Q 2925 2566 2817 2730 
Q 2709 2894 2444 2894 
Q 2109 2894 1953 2648 
Q 1797 2403 1797 1869 
L 1797 378 
L 2203 378 
L 2203 0 
L 219 0 
z
" transform="scale(0.015625)"/>
       <path id="DejaVuSerif-Bold-4c" d="M 300 0 
L 300 378 
L 897 378 
L 897 4288 
L 300 4288 
L 300 4666 
L 2700 4666 
L 2700 4288 
L 2100 4288 
L 2100 428 
L 3938 428 
L 3938 1166 
L 4359 1166 
L 4359 0 
L 300 0 
z
" transform="scale(0.015625)"/>
       <path id="DejaVuSerif-Bold-6c" d="M 1797 378 
L 2272 378 
L 2272 0 
L 219 0 
L 219 378 
L 691 378 
L 691 4488 
L 219 4488 
L 219 4863 
L 1797 4863 
L 1797 378 
z
" transform="scale(0.015625)"/>
      </defs>
      <use xlink:href="#DejaVuSerif-Bold-48"/>
      <use xlink:href="#DejaVuSerif-Bold-69" x="94.482422"/>
      <use xlink:href="#DejaVuSerif-Bold-65" x="132.470703"/>
      <use xlink:href="#DejaVuSerif-Bold-72" x="196.09375"/>
      <use xlink:href="#DejaVuSerif-Bold-61" x="248.779297"/>
      <use xlink:href="#DejaVuSerif-Bold-72" x="313.574219"/>
      <use xlink:href="#DejaVuSerif-Bold-63" x="366.259766"/>
      <use xlink:href="#DejaVuSerif-Bold-68" x="427.148438"/>
      <use xlink:href="#DejaVuSerif-Bold-79" x="499.853516"/>
      <use xlink:href="#DejaVuSerif-Bold-20" x="557.958984"/>
      <use xlink:href="#DejaVuSerif-Bold-4c" x="592.773438"/>
      <use xlink:href="#DejaVuSerif-Bold-65" x="663.085938"/>
      <use xlink:href="#DejaVuSerif-Bold-76" x="726.708984"/>
      <use xlink:href="#DejaVuSerif-Bold-65" x="784.814453"/>
      <use xlink:href="#DejaVuSerif-Bold-6c" x="848.4375"/>
      <use xlink:href="#DejaVuSerif-Bold-73" x="886.425781"/>
      <use xlink:href="#DejaVuSerif-Bold-20" x="942.724609"/>
      <use xlink:href="#DejaVuSerif-Bold-28" x="977.539062"/>
      <use xlink:href="#DejaVuSerif-Bold-4c" x="1024.853516"/>
      <use xlink:href="#DejaVuSerif-Bold-29" x="1095.166016"/>
     </g>
    </g>
   </g>
   <g id="matplotlib.axis_8">
    <g id="ytick_20">
     <g id="line2d_83">
      <path d="M 540.451875 840.374979 
L 991.711875 840.374979 
" clip-path="url(#p3675baab1b)" style="fill: none; stroke-dasharray: 2.96,1.28; stroke-dashoffset: 0; stroke: #cccccc; stroke-opacity: 0.7; stroke-width: 0.8"/>
     </g>
     <g id="line2d_84"/>
     <g id="text_49">
      <!-- 60 -->
      <g style="fill: #262626" transform="translate(524.226875 844.174197) scale(0.1 -0.1)">
       <use xlink:href="#DejaVuSerif-36"/>
       <use xlink:href="#DejaVuSerif-30" x="63.623047"/>
      </g>
     </g>
    </g>
    <g id="ytick_21">
     <g id="line2d_85">
      <path d="M 540.451875 790.503206 
L 991.711875 790.503206 
" clip-path="url(#p3675baab1b)" style="fill: none; stroke-dasharray: 2.96,1.28; stroke-dashoffset: 0; stroke: #cccccc; stroke-opacity: 0.7; stroke-width: 0.8"/>
     </g>
     <g id="line2d_86"/>
     <g id="text_50">
      <!-- 65 -->
      <g style="fill: #262626" transform="translate(524.226875 794.302425) scale(0.1 -0.1)">
       <use xlink:href="#DejaVuSerif-36"/>
       <use xlink:href="#DejaVuSerif-35" x="63.623047"/>
      </g>
     </g>
    </g>
    <g id="ytick_22">
     <g id="line2d_87">
      <path d="M 540.451875 740.631433 
L 991.711875 740.631433 
" clip-path="url(#p3675baab1b)" style="fill: none; stroke-dasharray: 2.96,1.28; stroke-dashoffset: 0; stroke: #cccccc; stroke-opacity: 0.7; stroke-width: 0.8"/>
     </g>
     <g id="line2d_88"/>
     <g id="text_51">
      <!-- 70 -->
      <g style="fill: #262626" transform="translate(524.226875 744.430652) scale(0.1 -0.1)">
       <defs>
        <path id="DejaVuSerif-37" d="M 3609 4347 
L 1784 0 
L 1319 0 
L 3059 4153 
L 903 4153 
L 903 3578 
L 538 3578 
L 538 4666 
L 3609 4666 
L 3609 4347 
z
" transform="scale(0.015625)"/>
       </defs>
       <use xlink:href="#DejaVuSerif-37"/>
       <use xlink:href="#DejaVuSerif-30" x="63.623047"/>
      </g>
     </g>
    </g>
    <g id="ytick_23">
     <g id="line2d_89">
      <path d="M 540.451875 690.759661 
L 991.711875 690.759661 
" clip-path="url(#p3675baab1b)" style="fill: none; stroke-dasharray: 2.96,1.28; stroke-dashoffset: 0; stroke: #cccccc; stroke-opacity: 0.7; stroke-width: 0.8"/>
     </g>
     <g id="line2d_90"/>
     <g id="text_52">
      <!-- 75 -->
      <g style="fill: #262626" transform="translate(524.226875 694.558879) scale(0.1 -0.1)">
       <use xlink:href="#DejaVuSerif-37"/>
       <use xlink:href="#DejaVuSerif-35" x="63.623047"/>
      </g>
     </g>
    </g>
    <g id="ytick_24">
     <g id="line2d_91">
      <path d="M 540.451875 640.887888 
L 991.711875 640.887888 
" clip-path="url(#p3675baab1b)" style="fill: none; stroke-dasharray: 2.96,1.28; stroke-dashoffset: 0; stroke: #cccccc; stroke-opacity: 0.7; stroke-width: 0.8"/>
     </g>
     <g id="line2d_92"/>
     <g id="text_53">
      <!-- 80 -->
      <g style="fill: #262626" transform="translate(524.226875 644.687107) scale(0.1 -0.1)">
       <use xlink:href="#DejaVuSerif-38"/>
       <use xlink:href="#DejaVuSerif-30" x="63.623047"/>
      </g>
     </g>
    </g>
    <g id="ytick_25">
     <g id="line2d_93">
      <path d="M 540.451875 591.016115 
L 991.711875 591.016115 
" clip-path="url(#p3675baab1b)" style="fill: none; stroke-dasharray: 2.96,1.28; stroke-dashoffset: 0; stroke: #cccccc; stroke-opacity: 0.7; stroke-width: 0.8"/>
     </g>
     <g id="line2d_94"/>
     <g id="text_54">
      <!-- 85 -->
      <g style="fill: #262626" transform="translate(524.226875 594.815334) scale(0.1 -0.1)">
       <use xlink:href="#DejaVuSerif-38"/>
       <use xlink:href="#DejaVuSerif-35" x="63.623047"/>
      </g>
     </g>
    </g>
    <g id="ytick_26">
     <g id="line2d_95">
      <path d="M 540.451875 541.144343 
L 991.711875 541.144343 
" clip-path="url(#p3675baab1b)" style="fill: none; stroke-dasharray: 2.96,1.28; stroke-dashoffset: 0; stroke: #cccccc; stroke-opacity: 0.7; stroke-width: 0.8"/>
     </g>
     <g id="line2d_96"/>
     <g id="text_55">
      <!-- 90 -->
      <g style="fill: #262626" transform="translate(524.226875 544.943562) scale(0.1 -0.1)">
       <defs>
        <path id="DejaVuSerif-39" d="M 2994 2091 
Q 2784 1856 2512 1740 
Q 2241 1625 1900 1625 
Q 1206 1625 804 2044 
Q 403 2463 403 3188 
Q 403 3897 839 4323 
Q 1275 4750 2003 4750 
Q 2794 4750 3217 4161 
Q 3641 3572 3641 2478 
Q 3641 1253 3137 581 
Q 2634 -91 1722 -91 
Q 1475 -91 1203 -44 
Q 931 3 647 97 
L 647 872 
L 997 872 
Q 1038 556 1241 387 
Q 1444 219 1784 219 
Q 2391 219 2687 676 
Q 2984 1134 2994 2091 
z
M 1978 4441 
Q 1534 4441 1298 4117 
Q 1063 3794 1063 3188 
Q 1063 2581 1298 2256 
Q 1534 1931 1978 1931 
Q 2422 1931 2658 2245 
Q 2894 2559 2894 3150 
Q 2894 3772 2656 4106 
Q 2419 4441 1978 4441 
z
" transform="scale(0.015625)"/>
       </defs>
       <use xlink:href="#DejaVuSerif-39"/>
       <use xlink:href="#DejaVuSerif-30" x="63.623047"/>
      </g>
     </g>
    </g>
    <g id="ytick_27">
     <g id="line2d_97">
      <path d="M 540.451875 491.27257 
L 991.711875 491.27257 
" clip-path="url(#p3675baab1b)" style="fill: none; stroke-dasharray: 2.96,1.28; stroke-dashoffset: 0; stroke: #cccccc; stroke-opacity: 0.7; stroke-width: 0.8"/>
     </g>
     <g id="line2d_98"/>
     <g id="text_56">
      <!-- 95 -->
      <g style="fill: #262626" transform="translate(524.226875 495.071789) scale(0.1 -0.1)">
       <use xlink:href="#DejaVuSerif-39"/>
       <use xlink:href="#DejaVuSerif-35" x="63.623047"/>
      </g>
     </g>
    </g>
    <g id="text_57">
     <!-- Mean Accuracy (%) -->
     <g style="fill: #262626" transform="translate(517.560625 734.294579) rotate(-90) scale(0.12 -0.12)">
      <use xlink:href="#DejaVuSerif-Bold-4d"/>
      <use xlink:href="#DejaVuSerif-Bold-65" x="110.693359"/>
      <use xlink:href="#DejaVuSerif-Bold-61" x="174.316406"/>
      <use xlink:href="#DejaVuSerif-Bold-6e" x="239.111328"/>
      <use xlink:href="#DejaVuSerif-Bold-20" x="311.816406"/>
      <use xlink:href="#DejaVuSerif-Bold-41" x="346.630859"/>
      <use xlink:href="#DejaVuSerif-Bold-63" x="424.21875"/>
      <use xlink:href="#DejaVuSerif-Bold-63" x="485.107422"/>
      <use xlink:href="#DejaVuSerif-Bold-75" x="545.996094"/>
      <use xlink:href="#DejaVuSerif-Bold-72" x="618.701172"/>
      <use xlink:href="#DejaVuSerif-Bold-61" x="671.386719"/>
      <use xlink:href="#DejaVuSerif-Bold-63" x="736.181641"/>
      <use xlink:href="#DejaVuSerif-Bold-79" x="797.070312"/>
      <use xlink:href="#DejaVuSerif-Bold-20" x="855.175781"/>
      <use xlink:href="#DejaVuSerif-Bold-28" x="889.990234"/>
      <use xlink:href="#DejaVuSerif-Bold-25" x="937.304688"/>
      <use xlink:href="#DejaVuSerif-Bold-29" x="1032.324219"/>
     </g>
    </g>
   </g>
   <g id="LineCollection_2">
    <path d="M 560.963693 625.320551 
L 560.963693 506.839907 
" clip-path="url(#p3675baab1b)" style="fill: none; stroke: #2c3e50; stroke-width: 2"/>
    <path d="M 697.709148 632.800034 
L 697.709148 548.56724 
" clip-path="url(#p3675baab1b)" style="fill: none; stroke: #2c3e50; stroke-width: 2"/>
    <path d="M 834.454602 832.192377 
L 834.454602 563.291041 
" clip-path="url(#p3675baab1b)" style="fill: none; stroke: #2c3e50; stroke-width: 2"/>
    <path d="M 971.200057 627.555125 
L 971.200057 556.471977 
" clip-path="url(#p3675baab1b)" style="fill: none; stroke: #2c3e50; stroke-width: 2"/>
   </g>
   <g id="line2d_99">
    <defs>
     <path id="m85ea20ded1" d="M 5 0 
L -5 -0 
" style="stroke: #2c3e50"/>
    </defs>
    <g clip-path="url(#p3675baab1b)">
     <use xlink:href="#m85ea20ded1" x="560.963693" y="625.320551" style="fill: #2c3e50; stroke: #2c3e50"/>
     <use xlink:href="#m85ea20ded1" x="697.709148" y="632.800034" style="fill: #2c3e50; stroke: #2c3e50"/>
     <use xlink:href="#m85ea20ded1" x="834.454602" y="832.192377" style="fill: #2c3e50; stroke: #2c3e50"/>
     <use xlink:href="#m85ea20ded1" x="971.200057" y="627.555125" style="fill: #2c3e50; stroke: #2c3e50"/>
    </g>
   </g>
   <g id="line2d_100">
    <g clip-path="url(#p3675baab1b)">
     <use xlink:href="#m85ea20ded1" x="560.963693" y="506.839907" style="fill: #2c3e50; stroke: #2c3e50"/>
     <use xlink:href="#m85ea20ded1" x="697.709148" y="548.56724" style="fill: #2c3e50; stroke: #2c3e50"/>
     <use xlink:href="#m85ea20ded1" x="834.454602" y="563.291041" style="fill: #2c3e50; stroke: #2c3e50"/>
     <use xlink:href="#m85ea20ded1" x="971.200057" y="556.471977" style="fill: #2c3e50; stroke: #2c3e50"/>
    </g>
   </g>
   <g id="line2d_101">
    <path d="M 540.451875 654.187027 
L 991.711875 654.187027 
" clip-path="url(#p3675baab1b)" style="fill: none; stroke-dasharray: 7.4,3.2; stroke-dashoffset: 0; stroke: #3498db; stroke-width: 2"/>
   </g>
   <g id="line2d_102">
    <path d="M 560.963693 566.080229 
L 697.709148 590.683637 
L 834.454602 697.741709 
L 971.200057 592.013551 
" clip-path="url(#p3675baab1b)" style="fill: none; stroke: #2c3e50; stroke-width: 2; stroke-linecap: round"/>
    <defs>
     <path id="m9701046125" d="M 0 4 
C 1.060812 4 2.078319 3.578535 2.828427 2.828427 
C 3.578535 2.078319 4 1.060812 4 0 
C 4 -1.060812 3.578535 -2.078319 2.828427 -2.828427 
C 2.078319 -3.578535 1.060812 -4 0 -4 
C -1.060812 -4 -2.078319 -3.578535 -2.828427 -2.828427 
C -3.578535 -2.078319 -4 -1.060812 -4 0 
C -4 1.060812 -3.578535 2.078319 -2.828427 2.828427 
C -2.078319 3.578535 -1.060812 4 0 4 
z
" style="stroke: #2c3e50"/>
    </defs>
    <g clip-path="url(#p3675baab1b)">
     <use xlink:href="#m9701046125" x="560.963693" y="566.080229" style="fill: #2c3e50; stroke: #2c3e50"/>
     <use xlink:href="#m9701046125" x="697.709148" y="590.683637" style="fill: #2c3e50; stroke: #2c3e50"/>
     <use xlink:href="#m9701046125" x="834.454602" y="697.741709" style="fill: #2c3e50; stroke: #2c3e50"/>
     <use xlink:href="#m9701046125" x="971.200057" y="592.013551" style="fill: #2c3e50; stroke: #2c3e50"/>
    </g>
   </g>
   <g id="patch_22">
    <path d="M 540.451875 848.46 
L 540.451875 490.572283 
" style="fill: none; stroke: #cccccc; stroke-linejoin: miter; stroke-linecap: square"/>
   </g>
   <g id="patch_23">
    <path d="M 540.451875 848.46 
L 991.711875 848.46 
" style="fill: none; stroke: #cccccc; stroke-linejoin: miter; stroke-linecap: square"/>
   </g>
   <g id="text_58">
    <!-- (d) Effect of Hierarchy Depth -->
    <g style="fill: #262626" transform="translate(659.248281 484.572283) scale(0.13 -0.13)">
     <defs>
      <path id="DejaVuSerif-Bold-45" d="M 300 0 
L 300 378 
L 897 378 
L 897 4288 
L 300 4288 
L 300 4666 
L 4494 4666 
L 4494 3566 
L 4063 3566 
L 4063 4238 
L 2100 4238 
L 2100 2741 
L 3322 2741 
L 3322 3334 
L 3750 3334 
L 3750 1722 
L 3322 1722 
L 3322 2316 
L 2100 2316 
L 2100 428 
L 4122 428 
L 4122 1100 
L 4550 1100 
L 4550 0 
L 300 0 
z
" transform="scale(0.015625)"/>
      <path id="DejaVuSerif-Bold-66" d="M 3097 4031 
L 2747 4031 
Q 2722 4275 2605 4394 
Q 2488 4513 2272 4513 
Q 2022 4513 1909 4333 
Q 1797 4153 1797 3750 
L 1797 3322 
L 2631 3322 
L 2631 2944 
L 1797 2944 
L 1797 378 
L 2438 378 
L 2438 0 
L 219 0 
L 219 378 
L 691 378 
L 691 2944 
L 197 2944 
L 197 3322 
L 691 3322 
L 691 3738 
Q 691 4291 1044 4577 
Q 1397 4863 2081 4863 
Q 2347 4863 2600 4833 
Q 2853 4803 3097 4744 
L 3097 4031 
z
" transform="scale(0.015625)"/>
     </defs>
     <use xlink:href="#DejaVuSerif-Bold-28"/>
     <use xlink:href="#DejaVuSerif-Bold-64" x="47.314453"/>
     <use xlink:href="#DejaVuSerif-Bold-29" x="117.236328"/>
     <use xlink:href="#DejaVuSerif-Bold-20" x="164.550781"/>
     <use xlink:href="#DejaVuSerif-Bold-45" x="199.365234"/>
     <use xlink:href="#DejaVuSerif-Bold-66" x="275.585938"/>
     <use xlink:href="#DejaVuSerif-Bold-66" x="318.603516"/>
     <use xlink:href="#DejaVuSerif-Bold-65" x="361.621094"/>
     <use xlink:href="#DejaVuSerif-Bold-63" x="425.244141"/>
     <use xlink:href="#DejaVuSerif-Bold-74" x="486.132812"/>
     <use xlink:href="#DejaVuSerif-Bold-20" x="532.324219"/>
     <use xlink:href="#DejaVuSerif-Bold-6f" x="567.138672"/>
     <use xlink:href="#DejaVuSerif-Bold-66" x="633.837891"/>
     <use xlink:href="#DejaVuSerif-Bold-20" x="676.855469"/>
     <use xlink:href="#DejaVuSerif-Bold-48" x="711.669922"/>
     <use xlink:href="#DejaVuSerif-Bold-69" x="806.152344"/>
     <use xlink:href="#DejaVuSerif-Bold-65" x="844.140625"/>
     <use xlink:href="#DejaVuSerif-Bold-72" x="907.763672"/>
     <use xlink:href="#DejaVuSerif-Bold-61" x="960.449219"/>
     <use xlink:href="#DejaVuSerif-Bold-72" x="1025.244141"/>
     <use xlink:href="#DejaVuSerif-Bold-63" x="1077.929688"/>
     <use xlink:href="#DejaVuSerif-Bold-68" x="1138.818359"/>
     <use xlink:href="#DejaVuSerif-Bold-79" x="1211.523438"/>
     <use xlink:href="#DejaVuSerif-Bold-20" x="1269.628906"/>
     <use xlink:href="#DejaVuSerif-Bold-44" x="1304.443359"/>
     <use xlink:href="#DejaVuSerif-Bold-65" x="1391.162109"/>
     <use xlink:href="#DejaVuSerif-Bold-70" x="1454.785156"/>
     <use xlink:href="#DejaVuSerif-Bold-74" x="1524.707031"/>
     <use xlink:href="#DejaVuSerif-Bold-68" x="1570.898438"/>
    </g>
   </g>
   <g id="legend_2">
    <g id="line2d_103">
     <path d="M 894.53375 833.880312 
L 904.53375 833.880312 
L 914.53375 833.880312 
" style="fill: none; stroke-dasharray: 7.4,3.2; stroke-dashoffset: 0; stroke: #3498db; stroke-width: 2"/>
    </g>
    <g id="text_59">
     <!-- ER baseline -->
     <g style="fill: #262626" transform="translate(922.53375 837.380312) scale(0.1 -0.1)">
      <defs>
       <path id="DejaVuSerif-20" transform="scale(0.015625)"/>
       <path id="DejaVuSerif-62" d="M 738 331 
L 738 4531 
L 184 4531 
L 184 4863 
L 1313 4863 
L 1313 2803 
Q 1481 3116 1742 3264 
Q 2003 3413 2388 3413 
Q 3000 3413 3387 2928 
Q 3775 2444 3775 1663 
Q 3775 881 3387 395 
Q 3000 -91 2388 -91 
Q 2003 -91 1742 57 
Q 1481 206 1313 519 
L 1313 0 
L 184 0 
L 184 331 
L 738 331 
z
M 1313 1497 
Q 1313 897 1542 583 
Q 1772 269 2209 269 
Q 2650 269 2876 622 
Q 3103 975 3103 1663 
Q 3103 2353 2876 2703 
Q 2650 3053 2209 3053 
Q 1772 3053 1542 2737 
Q 1313 2422 1313 1825 
L 1313 1497 
z
" transform="scale(0.015625)"/>
       <path id="DejaVuSerif-61" d="M 2547 1044 
L 2547 1747 
L 1806 1747 
Q 1378 1747 1168 1562 
Q 959 1378 959 997 
Q 959 650 1171 447 
Q 1384 244 1747 244 
Q 2106 244 2326 466 
Q 2547 688 2547 1044 
z
M 3122 2075 
L 3122 331 
L 3634 331 
L 3634 0 
L 2547 0 
L 2547 359 
Q 2356 128 2106 18 
Q 1856 -91 1522 -91 
Q 969 -91 644 203 
Q 319 497 319 997 
Q 319 1513 691 1797 
Q 1063 2081 1741 2081 
L 2547 2081 
L 2547 2309 
Q 2547 2688 2317 2895 
Q 2088 3103 1672 3103 
Q 1328 3103 1125 2947 
Q 922 2791 872 2484 
L 575 2484 
L 575 3156 
Q 875 3284 1158 3348 
Q 1441 3413 1709 3413 
Q 2400 3413 2761 3070 
Q 3122 2728 3122 2075 
z
" transform="scale(0.015625)"/>
       <path id="DejaVuSerif-73" d="M 359 184 
L 359 959 
L 691 959 
Q 703 588 923 403 
Q 1144 219 1575 219 
Q 1963 219 2166 364 
Q 2369 509 2369 788 
Q 2369 1006 2220 1140 
Q 2072 1275 1594 1428 
L 1178 1569 
Q 750 1706 558 1912 
Q 366 2119 366 2438 
Q 366 2894 700 3153 
Q 1034 3413 1625 3413 
Q 1888 3413 2178 3344 
Q 2469 3275 2778 3144 
L 2778 2419 
L 2447 2419 
Q 2434 2741 2221 2922 
Q 2009 3103 1644 3103 
Q 1281 3103 1095 2975 
Q 909 2847 909 2591 
Q 909 2381 1050 2254 
Q 1191 2128 1613 1997 
L 2069 1856 
Q 2541 1709 2748 1489 
Q 2956 1269 2956 922 
Q 2956 450 2595 179 
Q 2234 -91 1600 -91 
Q 1278 -91 972 -22 
Q 666 47 359 184 
z
" transform="scale(0.015625)"/>
       <path id="DejaVuSerif-65" d="M 3469 1600 
L 991 1600 
L 991 1575 
Q 991 903 1244 561 
Q 1497 219 1991 219 
Q 2369 219 2611 417 
Q 2853 616 2950 1006 
L 3413 1006 
Q 3275 459 2904 184 
Q 2534 -91 1931 -91 
Q 1203 -91 761 389 
Q 319 869 319 1663 
Q 319 2450 753 2931 
Q 1188 3413 1894 3413 
Q 2647 3413 3050 2948 
Q 3453 2484 3469 1600 
z
M 2791 1931 
Q 2772 2513 2545 2808 
Q 2319 3103 1894 3103 
Q 1497 3103 1269 2806 
Q 1041 2509 991 1931 
L 2791 1931 
z
" transform="scale(0.015625)"/>
       <path id="DejaVuSerif-6c" d="M 1313 331 
L 1856 331 
L 1856 0 
L 184 0 
L 184 331 
L 738 331 
L 738 4531 
L 184 4531 
L 184 4863 
L 1313 4863 
L 1313 331 
z
" transform="scale(0.015625)"/>
       <path id="DejaVuSerif-69" d="M 622 4353 
Q 622 4497 726 4603 
Q 831 4709 978 4709 
Q 1122 4709 1226 4603 
Q 1331 4497 1331 4353 
Q 1331 4206 1228 4103 
Q 1125 4000 978 4000 
Q 831 4000 726 4103 
Q 622 4206 622 4353 
z
M 1356 331 
L 1900 331 
L 1900 0 
L 231 0 
L 231 331 
L 781 331 
L 781 2988 
L 231 2988 
L 231 3322 
L 1356 3322 
L 1356 331 
z
" transform="scale(0.015625)"/>
       <path id="DejaVuSerif-6e" d="M 263 0 
L 263 331 
L 781 331 
L 781 2988 
L 231 2988 
L 231 3322 
L 1356 3322 
L 1356 2731 
Q 1516 3069 1770 3241 
Q 2025 3413 2363 3413 
Q 2913 3413 3172 3097 
Q 3431 2781 3431 2113 
L 3431 331 
L 3944 331 
L 3944 0 
L 2356 0 
L 2356 331 
L 2853 331 
L 2853 1931 
Q 2853 2541 2703 2767 
Q 2553 2994 2175 2994 
Q 1775 2994 1565 2701 
Q 1356 2409 1356 1850 
L 1356 331 
L 1856 331 
L 1856 0 
L 263 0 
z
" transform="scale(0.015625)"/>
      </defs>
      <use xlink:href="#DejaVuSerif-45"/>
      <use xlink:href="#DejaVuSerif-52" x="72.998047"/>
      <use xlink:href="#DejaVuSerif-20" x="148.291016"/>
      <use xlink:href="#DejaVuSerif-62" x="180.078125"/>
      <use xlink:href="#DejaVuSerif-61" x="244.091797"/>
      <use xlink:href="#DejaVuSerif-73" x="303.710938"/>
      <use xlink:href="#DejaVuSerif-65" x="355.029297"/>
      <use xlink:href="#DejaVuSerif-6c" x="414.208984"/>
      <use xlink:href="#DejaVuSerif-69" x="446.191406"/>
      <use xlink:href="#DejaVuSerif-6e" x="478.173828"/>
      <use xlink:href="#DejaVuSerif-65" x="542.578125"/>
     </g>
    </g>
   </g>
  </g>
  <g id="text_60">
   <!-- Comprehensive Comparison on SplitMNIST -->
   <g style="fill: #262626" transform="translate(304.371875 19.3575) scale(0.16 -0.16)">
    <defs>
     <path id="DejaVuSerif-Bold-4e" d="M 281 0 
L 281 378 
L 878 378 
L 878 4288 
L 281 4288 
L 281 4666 
L 1741 4666 
L 4556 1363 
L 4556 4288 
L 3963 4288 
L 3963 4666 
L 5594 4666 
L 5594 4288 
L 4997 4288 
L 4997 0 
L 4178 0 
L 1319 3372 
L 1319 378 
L 1913 378 
L 1913 0 
L 281 0 
z
" transform="scale(0.015625)"/>
     <path id="DejaVuSerif-Bold-49" d="M 300 0 
L 300 378 
L 897 378 
L 897 4288 
L 300 4288 
L 300 4666 
L 2700 4666 
L 2700 4288 
L 2100 4288 
L 2100 378 
L 2700 378 
L 2700 0 
L 300 0 
z
" transform="scale(0.015625)"/>
    </defs>
    <use xlink:href="#DejaVuSerif-Bold-43"/>
    <use xlink:href="#DejaVuSerif-Bold-6f" x="79.589844"/>
    <use xlink:href="#DejaVuSerif-Bold-6d" x="146.289062"/>
    <use xlink:href="#DejaVuSerif-Bold-70" x="252.099609"/>
    <use xlink:href="#DejaVuSerif-Bold-72" x="322.021484"/>
    <use xlink:href="#DejaVuSerif-Bold-65" x="374.707031"/>
    <use xlink:href="#DejaVuSerif-Bold-68" x="438.330078"/>
    <use xlink:href="#DejaVuSerif-Bold-65" x="511.035156"/>
    <use xlink:href="#DejaVuSerif-Bold-6e" x="574.658203"/>
    <use xlink:href="#DejaVuSerif-Bold-73" x="647.363281"/>
    <use xlink:href="#DejaVuSerif-Bold-69" x="703.662109"/>
    <use xlink:href="#DejaVuSerif-Bold-76" x="741.650391"/>
    <use xlink:href="#DejaVuSerif-Bold-65" x="799.755859"/>
    <use xlink:href="#DejaVuSerif-Bold-20" x="863.378906"/>
    <use xlink:href="#DejaVuSerif-Bold-43" x="898.193359"/>
    <use xlink:href="#DejaVuSerif-Bold-6f" x="977.783203"/>
    <use xlink:href="#DejaVuSerif-Bold-6d" x="1044.482422"/>
    <use xlink:href="#DejaVuSerif-Bold-70" x="1150.292969"/>
    <use xlink:href="#DejaVuSerif-Bold-61" x="1220.214844"/>
    <use xlink:href="#DejaVuSerif-Bold-72" x="1285.009766"/>
    <use xlink:href="#DejaVuSerif-Bold-69" x="1337.695312"/>
    <use xlink:href="#DejaVuSerif-Bold-73" x="1375.683594"/>
    <use xlink:href="#DejaVuSerif-Bold-6f" x="1431.982422"/>
    <use xlink:href="#DejaVuSerif-Bold-6e" x="1498.681641"/>
    <use xlink:href="#DejaVuSerif-Bold-20" x="1571.386719"/>
    <use xlink:href="#DejaVuSerif-Bold-6f" x="1606.201172"/>
    <use xlink:href="#DejaVuSerif-Bold-6e" x="1672.900391"/>
    <use xlink:href="#DejaVuSerif-Bold-20" x="1745.605469"/>
    <use xlink:href="#DejaVuSerif-Bold-53" x="1780.419922"/>
    <use xlink:href="#DejaVuSerif-Bold-70" x="1852.636719"/>
    <use xlink:href="#DejaVuSerif-Bold-6c" x="1922.558594"/>
    <use xlink:href="#DejaVuSerif-Bold-69" x="1960.546875"/>
    <use xlink:href="#DejaVuSerif-Bold-74" x="1998.535156"/>
    <use xlink:href="#DejaVuSerif-Bold-4d" x="2044.726562"/>
    <use xlink:href="#DejaVuSerif-Bold-4e" x="2155.419922"/>
    <use xlink:href="#DejaVuSerif-Bold-49" x="2246.826172"/>
    <use xlink:href="#DejaVuSerif-Bold-53" x="2293.603516"/>
    <use xlink:href="#DejaVuSerif-Bold-54" x="2365.820312"/>
   </g>
  </g>
 </g>
 <defs>
  <clipPath id="pe458034a29">
   <rect x="45.571875" y="80.34" width="451.26" height="357.887717"/>
  </clipPath>
  <clipPath id="p11c15e2182">
   <rect x="540.451875" y="80.34" width="451.26" height="357.887717"/>
  </clipPath>
  <clipPath id="p36b2136edf">
   <rect x="45.571875" y="490.572283" width="451.26" height="357.887717"/>
  </clipPath>
  <clipPath id="p3675baab1b">
   <rect x="540.451875" y="490.572283" width="451.26" height="357.887717"/>
  </clipPath>
 </defs>
</svg>
